<?xml version="1.0" encoding="UTF-8" standalone="no"?><svg xmlns="http://www.w3.org/2000/svg" xmlns:xlink="http://www.w3.org/1999/xlink" contentScriptType="application/ecmascript" contentStyleType="text/css" height="392px" preserveAspectRatio="none" style="width:598px;height:392px;" version="1.1" viewBox="0 0 598 392" width="598px" zoomAndPan="magnify"><defs><filter height="300%" id="ft2ycpqrbexy6" width="300%" x="-1" y="-1"><feGaussianBlur result="blurOut" stdDeviation="2.0"/><feColorMatrix in="blurOut" result="blurOut2" type="matrix" values="0 0 0 0 0 0 0 0 0 0 0 0 0 0 0 0 0 0 .4 0"/><feOffset dx="4.0" dy="4.0" in="blurOut2" result="blurOut3"/><feBlend in="SourceGraphic" in2="blurOut3" mode="normal"/></filter></defs><g><!--cluster GameMeta--><polygon fill="#FFFFFF" filter="url(#ft2ycpqrbexy6)" points="22,24,109,24,116,44,591,44,591,385,22,385,22,24" style="stroke: #000000; stroke-width: 2.0;"/><line style="stroke: #000000; stroke-width: 2.0;" x1="22" x2="116" y1="44" y2="44"/><text fill="#000000" font-family="sans-serif" font-size="14" font-weight="bold" lengthAdjust="spacingAndGlyphs" textLength="81" x="26" y="38.3184">GameMeta</text><!--class GameMeta.GameTimer--><rect fill="#FEFECE" filter="url(#ft2ycpqrbexy6)" height="137" id="GameMeta.GameTimer" style="stroke: #A80036; stroke-width: 1.5;" width="231" x="37.5" y="57"/><ellipse cx="116.75" cy="73" fill="#ADD1B2" rx="11" ry="11" style="stroke: #A80036; stroke-width: 1.0;"/><path d="M120.1406,74.9844 Q119.7188,79.9688 116.4063,79.9688 Q114.4531,79.9688 113.4063,77.9688 Q112.5313,76.2969 112.5313,73.3594 Q112.5313,70.3438 113.5,68.5781 Q114.5,66.7031 116.4063,66.7031 Q119.4375,66.7031 120.0625,71.1406 L117.9844,71.1406 Q117.625,68.6719 116.4063,68.6719 Q114.6719,68.6719 114.6719,73.3594 Q114.6719,78 116.4219,78 Q117.8594,78 118.0156,74.9844 L120.1406,74.9844 Z "/><text fill="#000000" font-family="sans-serif" font-size="12" lengthAdjust="spacingAndGlyphs" textLength="64" x="137.25" y="77.5586">GameTimer</text><line style="stroke: #A80036; stroke-width: 1.5;" x1="38.5" x2="267.5" y1="89" y2="89"/><polygon fill="none" points="48.5,111,44.5,117,52.5,117" style="stroke: #1963A0; stroke-width: 1.0;"/><text fill="#000000" font-family="sans-serif" font-size="11" lengthAdjust="spacingAndGlyphs" textLength="103" x="57.5" y="117.6787">int MaxTimeSecond</text><polygon fill="none" points="48.5,122,44.5,128,52.5,128" style="stroke: #1963A0; stroke-width: 1.0;"/><text fill="#000000" font-family="sans-serif" font-size="11" lengthAdjust="spacingAndGlyphs" textLength="109" x="57.5" y="128.6787">int HarryTimeSecond</text><line style="stroke: #A80036; stroke-width: 1.0; stroke-dasharray: 1.0,2.0;" x1="38.5" x2="124.5" y1="102.5" y2="102.5"/><text fill="#000000" font-family="sans-serif" font-size="11" lengthAdjust="spacingAndGlyphs" textLength="57" x="124.5" y="106.1787">serializable</text><line style="stroke: #A80036; stroke-width: 1.0; stroke-dasharray: 1.0,2.0;" x1="181.5" x2="267.5" y1="102.5" y2="102.5"/><line style="stroke: #A80036; stroke-width: 1.0; stroke-dasharray: 1.0,2.0;" x1="38.5" x2="267.5" y1="134" y2="134"/><polygon fill="none" points="48.5,141,44.5,147,52.5,147" style="stroke: #1963A0; stroke-width: 1.0;"/><text fill="#000000" font-family="sans-serif" font-size="11" lengthAdjust="spacingAndGlyphs" textLength="159" x="57.5" y="147.6787">IObservable&lt;bool&gt; OnTimeUp</text><polygon fill="none" points="48.5,152,44.5,158,52.5,158" style="stroke: #1963A0; stroke-width: 1.0;"/><text fill="#000000" font-family="sans-serif" font-size="11" lengthAdjust="spacingAndGlyphs" textLength="160" x="57.5" y="158.6787">IObservable&lt;bool&gt; OnHarryUp</text><polygon fill="none" points="48.5,163,44.5,169,52.5,169" style="stroke: #1963A0; stroke-width: 1.0;"/><text fill="#000000" font-family="sans-serif" font-size="11" lengthAdjust="spacingAndGlyphs" textLength="205" x="57.5" y="169.6787">ReactiveProperty&lt;int&gt; TimeMilliSecond</text><line style="stroke: #A80036; stroke-width: 1.5;" x1="38.5" x2="267.5" y1="175" y2="175"/><ellipse cx="48.5" cy="186" fill="#84BE84" rx="3" ry="3" style="stroke: #038048; stroke-width: 1.0;"/><text fill="#000000" font-family="sans-serif" font-size="11" lengthAdjust="spacingAndGlyphs" textLength="90" x="57.5" y="188.6787">void StartTimer ()</text><!--class GameMeta.FruitFever--><rect fill="#FEFECE" filter="url(#ft2ycpqrbexy6)" height="137" id="GameMeta.FruitFever" style="stroke: #A80036; stroke-width: 1.5;" width="271" x="303.5" y="57"/><ellipse cx="406.75" cy="73" fill="#ADD1B2" rx="11" ry="11" style="stroke: #A80036; stroke-width: 1.0;"/><path d="M410.1406,74.9844 Q409.7188,79.9688 406.4063,79.9688 Q404.4531,79.9688 403.4063,77.9688 Q402.5313,76.2969 402.5313,73.3594 Q402.5313,70.3438 403.5,68.5781 Q404.5,66.7031 406.4063,66.7031 Q409.4375,66.7031 410.0625,71.1406 L407.9844,71.1406 Q407.625,68.6719 406.4063,68.6719 Q404.6719,68.6719 404.6719,73.3594 Q404.6719,78 406.4219,78 Q407.8594,78 408.0156,74.9844 L410.1406,74.9844 Z "/><text fill="#000000" font-family="sans-serif" font-size="12" lengthAdjust="spacingAndGlyphs" textLength="56" x="427.25" y="77.5586">FruitFever</text><line style="stroke: #A80036; stroke-width: 1.5;" x1="304.5" x2="573.5" y1="89" y2="89"/><polygon fill="none" points="314.5,111,310.5,117,318.5,117" style="stroke: #1963A0; stroke-width: 1.0;"/><text fill="#000000" font-family="sans-serif" font-size="11" lengthAdjust="spacingAndGlyphs" textLength="102" x="323.5" y="117.6787">int DurationSecond</text><polygon fill="none" points="314.5,122,310.5,128,318.5,128" style="stroke: #1963A0; stroke-width: 1.0;"/><text fill="#000000" font-family="sans-serif" font-size="11" lengthAdjust="spacingAndGlyphs" textLength="133" x="323.5" y="128.6787">int[] RaiseTimeSecondList</text><line style="stroke: #A80036; stroke-width: 1.0; stroke-dasharray: 1.0,2.0;" x1="304.5" x2="410.5" y1="102.5" y2="102.5"/><text fill="#000000" font-family="sans-serif" font-size="11" lengthAdjust="spacingAndGlyphs" textLength="57" x="410.5" y="106.1787">serializable</text><line style="stroke: #A80036; stroke-width: 1.0; stroke-dasharray: 1.0,2.0;" x1="467.5" x2="573.5" y1="102.5" y2="102.5"/><line style="stroke: #A80036; stroke-width: 1.0; stroke-dasharray: 1.0,2.0;" x1="304.5" x2="573.5" y1="134" y2="134"/><polygon fill="none" points="314.5,141,310.5,147,318.5,147" style="stroke: #1963A0; stroke-width: 1.0;"/><text fill="#000000" font-family="sans-serif" font-size="11" lengthAdjust="spacingAndGlyphs" textLength="179" x="323.5" y="147.6787">ReactiveProperty&lt;bool&gt; IsEnabled</text><polygon fill="none" points="314.5,152,310.5,158,318.5,158" style="stroke: #1963A0; stroke-width: 1.0;"/><text fill="#000000" font-family="sans-serif" font-size="11" lengthAdjust="spacingAndGlyphs" textLength="245" x="323.5" y="158.6787">ReactiveProperty&lt;bool&gt; RemainedTimeSecond</text><polygon fill="none" points="314.5,163,310.5,169,318.5,169" style="stroke: #1963A0; stroke-width: 1.0;"/><text fill="#000000" font-family="sans-serif" font-size="11" lengthAdjust="spacingAndGlyphs" textLength="181" x="323.5" y="169.6787">ReactiveProperty&lt;bool&gt; GoodFruit</text><line style="stroke: #A80036; stroke-width: 1.5;" x1="304.5" x2="573.5" y1="175" y2="175"/><rect fill="#F24D5C" height="6" style="stroke: #C82930; stroke-width: 1.0;" width="6" x="311.5" y="183"/><text fill="#000000" font-family="sans-serif" font-size="11" lengthAdjust="spacingAndGlyphs" textLength="63" x="323.5" y="188.6787">void Raise ()</text><!--class GameMeta.FruitStrong--><rect fill="#FEFECE" filter="url(#ft2ycpqrbexy6)" height="115" id="GameMeta.FruitStrong" style="stroke: #A80036; stroke-width: 1.5;" width="271" x="38.5" y="254"/><ellipse cx="139.25" cy="270" fill="#ADD1B2" rx="11" ry="11" style="stroke: #A80036; stroke-width: 1.0;"/><path d="M142.6406,271.9844 Q142.2188,276.9688 138.9063,276.9688 Q136.9531,276.9688 135.9063,274.9688 Q135.0313,273.2969 135.0313,270.3594 Q135.0313,267.3438 136,265.5781 Q137,263.7031 138.9063,263.7031 Q141.9375,263.7031 142.5625,268.1406 L140.4844,268.1406 Q140.125,265.6719 138.9063,265.6719 Q137.1719,265.6719 137.1719,270.3594 Q137.1719,275 138.9219,275 Q140.3594,275 140.5156,271.9844 L142.6406,271.9844 Z "/><text fill="#000000" font-family="sans-serif" font-size="12" lengthAdjust="spacingAndGlyphs" textLength="61" x="159.75" y="274.5586">FruitStrong</text><line style="stroke: #A80036; stroke-width: 1.5;" x1="39.5" x2="308.5" y1="286" y2="286"/><polygon fill="none" points="49.5,308,45.5,314,53.5,314" style="stroke: #1963A0; stroke-width: 1.0;"/><text fill="#000000" font-family="sans-serif" font-size="11" lengthAdjust="spacingAndGlyphs" textLength="102" x="58.5" y="314.6787">int DurationSecond</text><line style="stroke: #A80036; stroke-width: 1.0; stroke-dasharray: 1.0,2.0;" x1="39.5" x2="145.5" y1="299.5" y2="299.5"/><text fill="#000000" font-family="sans-serif" font-size="11" lengthAdjust="spacingAndGlyphs" textLength="57" x="145.5" y="303.1787">serializable</text><line style="stroke: #A80036; stroke-width: 1.0; stroke-dasharray: 1.0,2.0;" x1="202.5" x2="308.5" y1="299.5" y2="299.5"/><line style="stroke: #A80036; stroke-width: 1.0; stroke-dasharray: 1.0,2.0;" x1="39.5" x2="308.5" y1="320" y2="320"/><polygon fill="none" points="49.5,327,45.5,333,53.5,333" style="stroke: #1963A0; stroke-width: 1.0;"/><text fill="#000000" font-family="sans-serif" font-size="11" lengthAdjust="spacingAndGlyphs" textLength="179" x="58.5" y="333.6787">ReactiveProperty&lt;bool&gt; IsEnabled</text><polygon fill="none" points="49.5,338,45.5,344,53.5,344" style="stroke: #1963A0; stroke-width: 1.0;"/><text fill="#000000" font-family="sans-serif" font-size="11" lengthAdjust="spacingAndGlyphs" textLength="245" x="58.5" y="344.6787">ReactiveProperty&lt;bool&gt; RemainedTimeSecond</text><line style="stroke: #A80036; stroke-width: 1.5;" x1="39.5" x2="308.5" y1="350" y2="350"/><rect fill="#F24D5C" height="6" style="stroke: #C82930; stroke-width: 1.0;" width="6" x="46.5" y="358"/><text fill="#000000" font-family="sans-serif" font-size="11" lengthAdjust="spacingAndGlyphs" textLength="63" x="58.5" y="363.6787">void Raise ()</text><!--link GameMeta.GameTimer to GameMeta.FruitFever--><!--link GameMeta.GameTimer to GameMeta.FruitStrong--><!--
@startuml

namespace GameMeta {
  class GameTimer {
    .. serializable ..
    ~ int MaxTimeSecond
    ~ int HarryTimeSecond
    ....
    ~ IObservable<bool> OnTimeUp
    ~ IObservable<bool> OnHarryUp
    ~ ReactiveProperty<int> TimeMilliSecond
    ____
    + void StartTimer ()
  }

  class FruitFever {
    .. serializable ..
    ~ int DurationSecond
    ~ int[] RaiseTimeSecondList
    ....
    ~ ReactiveProperty<bool> IsEnabled
    ~ ReactiveProperty<bool> RemainedTimeSecond
    ~ ReactiveProperty<bool> GoodFruit
    ____
    - void Raise ()
  }

  class FruitStrong {
    .. serializable ..
    ~ int DurationSecond
    ....
    ~ ReactiveProperty<bool> IsEnabled
    ~ ReactiveProperty<bool> RemainedTimeSecond
    ____
    - void Raise ()
  }
}

@enduml

PlantUML version 1.2017.12(Thu Apr 27 01:06:36 JST 2017)
(GPL source distribution)
Java Runtime: OpenJDK Runtime Environment
JVM: OpenJDK 64-Bit Server VM
Java Version: 1.8.0_112-release-736-b21
Operating System: Linux
OS Version: 4.10.0-35-generic
Default Encoding: UTF-8
Language: ja
Country: JP
--></g></svg>