<?xml version="1.0" encoding="UTF-8" standalone="no"?><svg xmlns="http://www.w3.org/2000/svg" xmlns:xlink="http://www.w3.org/1999/xlink" contentScriptType="application/ecmascript" contentStyleType="text/css" height="281px" preserveAspectRatio="none" style="width:365px;height:281px;" version="1.1" viewBox="0 0 365 281" width="365px" zoomAndPan="magnify"><defs><filter height="300%" id="f1vjys75txjzlb" width="300%" x="-1" y="-1"><feGaussianBlur result="blurOut" stdDeviation="2.0"/><feColorMatrix in="blurOut" result="blurOut2" type="matrix" values="0 0 0 0 0 0 0 0 0 0 0 0 0 0 0 0 0 0 .4 0"/><feOffset dx="4.0" dy="4.0" in="blurOut2" result="blurOut3"/><feBlend in="SourceGraphic" in2="blurOut3" mode="normal"/></filter></defs><g><!--cluster Input--><polygon fill="#FFFFFF" filter="url(#f1vjys75txjzlb)" points="88,32,133,32,140,52,358,52,358,145,88,145,88,32" style="stroke: #000000; stroke-width: 2.0;"/><line style="stroke: #000000; stroke-width: 2.0;" x1="88" x2="140" y1="52" y2="52"/><text fill="#000000" font-family="sans-serif" font-size="14" font-weight="bold" lengthAdjust="spacingAndGlyphs" textLength="39" x="92" y="46.3184">Input</text><!--cluster Game--><polygon fill="#FFFFFF" filter="url(#f1vjys75txjzlb)" points="22,177,71,177,78,197,170,197,170,274,22,274,22,177" style="stroke: #000000; stroke-width: 2.0;"/><line style="stroke: #000000; stroke-width: 2.0;" x1="22" x2="78" y1="197" y2="197"/><text fill="#000000" font-family="sans-serif" font-size="14" font-weight="bold" lengthAdjust="spacingAndGlyphs" textLength="43" x="26" y="191.3184">Game</text><!--class Input.BasicInput--><rect fill="#FEFECE" filter="url(#f1vjys75txjzlb)" height="48" id="Input.BasicInput" style="stroke: #A80036; stroke-width: 1.5;" width="91" x="242.5" y="73"/><ellipse cx="257.5" cy="89" fill="#ADD1B2" rx="11" ry="11" style="stroke: #A80036; stroke-width: 1.0;"/><path d="M260.8906,90.9844 Q260.4688,95.9688 257.1563,95.9688 Q255.2031,95.9688 254.1563,93.9688 Q253.2813,92.2969 253.2813,89.3594 Q253.2813,86.3438 254.25,84.5781 Q255.25,82.7031 257.1563,82.7031 Q260.1875,82.7031 260.8125,87.1406 L258.7344,87.1406 Q258.375,84.6719 257.1563,84.6719 Q255.4219,84.6719 255.4219,89.3594 Q255.4219,94 257.1719,94 Q258.6094,94 258.7656,90.9844 L260.8906,90.9844 Z "/><text fill="#000000" font-family="sans-serif" font-size="12" lengthAdjust="spacingAndGlyphs" textLength="59" x="271.5" y="93.5586">BasicInput</text><line style="stroke: #A80036; stroke-width: 1.5;" x1="243.5" x2="332.5" y1="105" y2="105"/><line style="stroke: #A80036; stroke-width: 1.5;" x1="243.5" x2="332.5" y1="113" y2="113"/><!--class Input.VRInput--><rect fill="#FEFECE" filter="url(#f1vjys75txjzlb)" height="48" id="Input.VRInput" style="stroke: #A80036; stroke-width: 1.5;" width="76" x="131" y="73"/><ellipse cx="146" cy="89" fill="#ADD1B2" rx="11" ry="11" style="stroke: #A80036; stroke-width: 1.0;"/><path d="M149.3906,90.9844 Q148.9688,95.9688 145.6563,95.9688 Q143.7031,95.9688 142.6563,93.9688 Q141.7813,92.2969 141.7813,89.3594 Q141.7813,86.3438 142.75,84.5781 Q143.75,82.7031 145.6563,82.7031 Q148.6875,82.7031 149.3125,87.1406 L147.2344,87.1406 Q146.875,84.6719 145.6563,84.6719 Q143.9219,84.6719 143.9219,89.3594 Q143.9219,94 145.6719,94 Q147.1094,94 147.2656,90.9844 L149.3906,90.9844 Z "/><text fill="#000000" font-family="sans-serif" font-size="12" lengthAdjust="spacingAndGlyphs" textLength="44" x="160" y="93.5586">VRInput</text><line style="stroke: #A80036; stroke-width: 1.5;" x1="132" x2="206" y1="105" y2="105"/><line style="stroke: #A80036; stroke-width: 1.5;" x1="132" x2="206" y1="113" y2="113"/><!--class Game.GameManager--><rect fill="#FEFECE" filter="url(#f1vjys75txjzlb)" height="48" id="Game.GameManager" style="stroke: #A80036; stroke-width: 1.5;" width="115" x="38.5" y="210"/><ellipse cx="53.5" cy="226" fill="#ADD1B2" rx="11" ry="11" style="stroke: #A80036; stroke-width: 1.0;"/><path d="M56.8906,227.9844 Q56.4688,232.9688 53.1563,232.9688 Q51.2031,232.9688 50.1563,230.9688 Q49.2813,229.2969 49.2813,226.3594 Q49.2813,223.3438 50.25,221.5781 Q51.25,219.7031 53.1563,219.7031 Q56.1875,219.7031 56.8125,224.1406 L54.7344,224.1406 Q54.375,221.6719 53.1563,221.6719 Q51.4219,221.6719 51.4219,226.3594 Q51.4219,231 53.1719,231 Q54.6094,231 54.7656,227.9844 L56.8906,227.9844 Z "/><text fill="#000000" font-family="sans-serif" font-size="12" lengthAdjust="spacingAndGlyphs" textLength="83" x="67.5" y="230.5586">GameManager</text><line style="stroke: #A80036; stroke-width: 1.5;" x1="39.5" x2="152.5" y1="242" y2="242"/><line style="stroke: #A80036; stroke-width: 1.5;" x1="39.5" x2="152.5" y1="250" y2="250"/><!--link Input to Game.GameManager--><path d="M96,145.2008 C96,145.5497 96,145.8993 96,146.2497 C96,149.0527 96,151.9041 96,154.7822 C96,160.5383 96,166.4012 96,172.1975 C96,183.7902 96,195.1167 96,204.7913 " fill="none" id="Input-Game.GameManager" style="stroke: #A80036; stroke-width: 1.0;"/><polygon fill="#A80036" points="96,209.8359,100,200.8359,96,204.8359,92,200.8359,96,209.8359" style="stroke: #A80036; stroke-width: 1.0;"/><!--
@startuml

namespace Input {
  class BasicInput {
  }

  class VRInput {
  }
}

Input - -> Game.GameManager

@enduml

PlantUML version 1.2017.12(Thu Apr 27 01:06:36 JST 2017)
(GPL source distribution)
Java Runtime: OpenJDK Runtime Environment
JVM: OpenJDK 64-Bit Server VM
Java Version: 1.8.0_112-release-736-b21
Operating System: Linux
OS Version: 4.10.0-35-generic
Default Encoding: UTF-8
Language: ja
Country: JP
--></g></svg>