<?xml version="1.0" encoding="UTF-8" standalone="no"?><svg xmlns="http://www.w3.org/2000/svg" xmlns:xlink="http://www.w3.org/1999/xlink" contentScriptType="application/ecmascript" contentStyleType="text/css" height="673px" preserveAspectRatio="none" style="width:550px;height:673px;" version="1.1" viewBox="0 0 550 673" width="550px" zoomAndPan="magnify"><defs><filter height="300%" id="ftg7qea1vz15f" width="300%" x="-1" y="-1"><feGaussianBlur result="blurOut" stdDeviation="2.0"/><feColorMatrix in="blurOut" result="blurOut2" type="matrix" values="0 0 0 0 0 0 0 0 0 0 0 0 0 0 0 0 0 0 .4 0"/><feOffset dx="4.0" dy="4.0" in="blurOut2" result="blurOut3"/><feBlend in="SourceGraphic" in2="blurOut3" mode="normal"/></filter></defs><g><!--cluster Meta--><polygon fill="#FFFFFF" filter="url(#ftg7qea1vz15f)" points="22,24,66,24,73,44,543,44,543,666,22,666,22,24" style="stroke: #000000; stroke-width: 2.0;"/><line style="stroke: #000000; stroke-width: 2.0;" x1="22" x2="73" y1="44" y2="44"/><text fill="#000000" font-family="sans-serif" font-size="14" font-weight="bold" lengthAdjust="spacingAndGlyphs" textLength="38" x="26" y="38.3184">Meta</text><!--class Meta.PlayerMetaState--><rect fill="#FEFECE" filter="url(#ftg7qea1vz15f)" height="92" id="Meta.PlayerMetaState" style="stroke: #A80036; stroke-width: 1.5;" width="124" x="96" y="400.5"/><ellipse cx="111" cy="416.5" fill="#EB937F" rx="11" ry="11" style="stroke: #A80036; stroke-width: 1.0;"/><path d="M107.1875,410.5469 L113.8438,410.5469 L113.8438,412.5313 L109.2344,412.5313 L109.2344,415.625 L113.2344,415.625 L113.2344,417.5781 L109.2344,417.5781 L109.2344,421.1563 L114.1875,421.1563 L114.1875,423.1406 L107.1875,423.1406 L107.1875,410.5469 Z "/><text fill="#000000" font-family="sans-serif" font-size="12" lengthAdjust="spacingAndGlyphs" textLength="92" x="125" y="421.0586">PlayerMetaState</text><line style="stroke: #A80036; stroke-width: 1.5;" x1="97" x2="219" y1="432.5" y2="432.5"/><text fill="#000000" font-family="sans-serif" font-size="11" lengthAdjust="spacingAndGlyphs" textLength="46" x="102" y="446.1787">WAITING</text><text fill="#000000" font-family="sans-serif" font-size="11" lengthAdjust="spacingAndGlyphs" textLength="36" x="102" y="457.1787">READY</text><text fill="#000000" font-family="sans-serif" font-size="11" lengthAdjust="spacingAndGlyphs" textLength="53" x="102" y="468.1787">STARTING</text><text fill="#000000" font-family="sans-serif" font-size="11" lengthAdjust="spacingAndGlyphs" textLength="46" x="102" y="479.1787">PLAYING</text><line style="stroke: #A80036; stroke-width: 1.5;" x1="97" x2="219" y1="484.5" y2="484.5"/><!--class Meta.RoomState--><rect fill="#FEFECE" filter="url(#ftg7qea1vz15f)" height="81" id="Meta.RoomState" style="stroke: #A80036; stroke-width: 1.5;" width="93" x="344.5" y="569"/><ellipse cx="359.5" cy="585" fill="#EB937F" rx="11" ry="11" style="stroke: #A80036; stroke-width: 1.0;"/><path d="M355.6875,579.0469 L362.3438,579.0469 L362.3438,581.0313 L357.7344,581.0313 L357.7344,584.125 L361.7344,584.125 L361.7344,586.0781 L357.7344,586.0781 L357.7344,589.6563 L362.6875,589.6563 L362.6875,591.6406 L355.6875,591.6406 L355.6875,579.0469 Z "/><text fill="#000000" font-family="sans-serif" font-size="12" lengthAdjust="spacingAndGlyphs" textLength="61" x="373.5" y="589.5586">RoomState</text><line style="stroke: #A80036; stroke-width: 1.5;" x1="345.5" x2="436.5" y1="601" y2="601"/><text fill="#000000" font-family="sans-serif" font-size="11" lengthAdjust="spacingAndGlyphs" textLength="46" x="350.5" y="614.6787">WAITING</text><text fill="#000000" font-family="sans-serif" font-size="11" lengthAdjust="spacingAndGlyphs" textLength="53" x="350.5" y="625.6787">STARTING</text><text fill="#000000" font-family="sans-serif" font-size="11" lengthAdjust="spacingAndGlyphs" textLength="46" x="350.5" y="636.6787">PLAYING</text><line style="stroke: #A80036; stroke-width: 1.5;" x1="345.5" x2="436.5" y1="642" y2="642"/><!--class Meta.PlayerNameFactory--><rect fill="#FEFECE" filter="url(#ftg7qea1vz15f)" height="59" id="Meta.PlayerNameFactory" style="stroke: #A80036; stroke-width: 1.5;" width="158" x="335" y="62.5"/><ellipse cx="357.65" cy="78.5" fill="#ADD1B2" rx="11" ry="11" style="stroke: #A80036; stroke-width: 1.0;"/><path d="M361.0406,80.4844 Q360.6188,85.4688 357.3063,85.4688 Q355.3531,85.4688 354.3063,83.4688 Q353.4313,81.7969 353.4313,78.8594 Q353.4313,75.8438 354.4,74.0781 Q355.4,72.2031 357.3063,72.2031 Q360.3375,72.2031 360.9625,76.6406 L358.8844,76.6406 Q358.525,74.1719 357.3063,74.1719 Q355.5719,74.1719 355.5719,78.8594 Q355.5719,83.5 357.3219,83.5 Q358.7594,83.5 358.9156,80.4844 L361.0406,80.4844 Z "/><text fill="#000000" font-family="sans-serif" font-size="12" lengthAdjust="spacingAndGlyphs" textLength="109" x="373.35" y="83.0586">PlayerNameFactory</text><line style="stroke: #A80036; stroke-width: 1.5;" x1="336" x2="492" y1="94.5" y2="94.5"/><line style="stroke: #A80036; stroke-width: 1.5;" x1="336" x2="492" y1="102.5" y2="102.5"/><ellipse cx="346" cy="113.5" fill="#84BE84" rx="3" ry="3" style="stroke: #038048; stroke-width: 1.0;"/><text fill="#000000" font-family="sans-serif" font-size="11" lengthAdjust="spacingAndGlyphs" textLength="132" x="355" y="116.1787">string MakePlayerName ()</text><!--class Meta.PlayerMeta--><rect fill="#FEFECE" filter="url(#ftg7qea1vz15f)" height="136" id="Meta.PlayerMeta" style="stroke: #A80036; stroke-width: 1.5;" width="247" x="38.5" y="187.5"/><ellipse cx="126.25" cy="203.5" fill="#ADD1B2" rx="11" ry="11" style="stroke: #A80036; stroke-width: 1.0;"/><path d="M129.6406,205.4844 Q129.2188,210.4688 125.9063,210.4688 Q123.9531,210.4688 122.9063,208.4688 Q122.0313,206.7969 122.0313,203.8594 Q122.0313,200.8438 123,199.0781 Q124,197.2031 125.9063,197.2031 Q128.9375,197.2031 129.5625,201.6406 L127.4844,201.6406 Q127.125,199.1719 125.9063,199.1719 Q124.1719,199.1719 124.1719,203.8594 Q124.1719,208.5 125.9219,208.5 Q127.3594,208.5 127.5156,205.4844 L129.6406,205.4844 Z "/><text fill="#000000" font-family="sans-serif" font-size="12" lengthAdjust="spacingAndGlyphs" textLength="63" x="146.75" y="208.0586">PlayerMeta</text><line style="stroke: #A80036; stroke-width: 1.5;" x1="39.5" x2="284.5" y1="219.5" y2="219.5"/><polygon fill="none" points="49.5,226.5,45.5,232.5,53.5,232.5" style="stroke: #1963A0; stroke-width: 1.0;"/><text fill="#000000" font-family="sans-serif" font-size="11" lengthAdjust="spacingAndGlyphs" textLength="213" x="58.5" y="233.1787">ReactiveProperty&lt;PlayerMetaState&gt; State</text><polygon fill="none" points="49.5,237.5,45.5,243.5,53.5,243.5" style="stroke: #1963A0; stroke-width: 1.0;"/><text fill="#000000" font-family="sans-serif" font-size="11" lengthAdjust="spacingAndGlyphs" textLength="147" x="58.5" y="244.1787">ReactiveProperty&lt;int&gt; Score</text><polygon fill="none" points="49.5,248.5,45.5,254.5,53.5,254.5" style="stroke: #1963A0; stroke-width: 1.0;"/><text fill="#000000" font-family="sans-serif" font-size="11" lengthAdjust="spacingAndGlyphs" textLength="221" x="58.5" y="255.1787">ReactiveProperty&lt;bool&gt; IsVotedStopGame</text><polygon fill="none" points="49.5,259.5,45.5,265.5,53.5,265.5" style="stroke: #1963A0; stroke-width: 1.0;"/><text fill="#000000" font-family="sans-serif" font-size="11" lengthAdjust="spacingAndGlyphs" textLength="62" x="58.5" y="266.1787">string Name</text><line style="stroke: #A80036; stroke-width: 1.5;" x1="39.5" x2="284.5" y1="271.5" y2="271.5"/><ellipse cx="49.5" cy="282.5" fill="#84BE84" rx="3" ry="3" style="stroke: #038048; stroke-width: 1.0;"/><text fill="#000000" font-family="sans-serif" font-size="11" lengthAdjust="spacingAndGlyphs" textLength="114" x="58.5" y="285.1787">void Init (string name)</text><ellipse cx="49.5" cy="293.5" fill="#84BE84" rx="3" ry="3" style="stroke: #038048; stroke-width: 1.0;"/><text fill="#000000" font-family="sans-serif" font-size="11" lengthAdjust="spacingAndGlyphs" textLength="67" x="58.5" y="296.1787">void Ready ()</text><ellipse cx="49.5" cy="304.5" fill="#84BE84" rx="3" ry="3" style="stroke: #038048; stroke-width: 1.0;"/><text fill="#000000" font-family="sans-serif" font-size="11" lengthAdjust="spacingAndGlyphs" textLength="103" x="58.5" y="307.1787">void CancelReady ()</text><ellipse cx="49.5" cy="315.5" fill="#84BE84" rx="3" ry="3" style="stroke: #038048; stroke-width: 1.0;"/><text fill="#000000" font-family="sans-serif" font-size="11" lengthAdjust="spacingAndGlyphs" textLength="102" x="58.5" y="318.1787">void SetStartState ()</text><!--class Meta.Room--><rect fill="#FEFECE" filter="url(#ftg7qea1vz15f)" height="125" id="Meta.Room" style="stroke: #A80036; stroke-width: 1.5;" width="272" x="255" y="384"/><ellipse cx="370.75" cy="400" fill="#ADD1B2" rx="11" ry="11" style="stroke: #A80036; stroke-width: 1.0;"/><path d="M374.1406,401.9844 Q373.7188,406.9688 370.4063,406.9688 Q368.4531,406.9688 367.4063,404.9688 Q366.5313,403.2969 366.5313,400.3594 Q366.5313,397.3438 367.5,395.5781 Q368.5,393.7031 370.4063,393.7031 Q373.4375,393.7031 374.0625,398.1406 L371.9844,398.1406 Q371.625,395.6719 370.4063,395.6719 Q368.6719,395.6719 368.6719,400.3594 Q368.6719,405 370.4219,405 Q371.8594,405 372.0156,401.9844 L374.1406,401.9844 Z "/><text fill="#000000" font-family="sans-serif" font-size="12" lengthAdjust="spacingAndGlyphs" textLength="32" x="391.25" y="404.5586">Room</text><line style="stroke: #A80036; stroke-width: 1.5;" x1="256" x2="526" y1="416" y2="416"/><polygon fill="none" points="266,423,262,429,270,429" style="stroke: #1963A0; stroke-width: 1.0;"/><text fill="#000000" font-family="sans-serif" font-size="11" lengthAdjust="spacingAndGlyphs" textLength="187" x="275" y="429.6787">ReactiveProperty&lt;RoomState&gt; State</text><polygon fill="none" points="266,434,262,440,270,440" style="stroke: #1963A0; stroke-width: 1.0;"/><text fill="#000000" font-family="sans-serif" font-size="11" lengthAdjust="spacingAndGlyphs" textLength="246" x="275" y="440.6787">ReactiveCollection&lt;PlayerMeta&gt; PlayerMetaList</text><polygon fill="none" points="266,445,262,451,270,451" style="stroke: #1963A0; stroke-width: 1.0;"/><text fill="#000000" font-family="sans-serif" font-size="11" lengthAdjust="spacingAndGlyphs" textLength="233" x="275" y="451.6787">ReactiveProperty&lt;PlayerMeta&gt; MyPlayerMeta</text><polygon fill="none" points="266,456,262,462,270,462" style="stroke: #1963A0; stroke-width: 1.0;"/><text fill="#000000" font-family="sans-serif" font-size="11" lengthAdjust="spacingAndGlyphs" textLength="180" x="275" y="462.6787">ReactiveProperty&lt;bool&gt; IsAllReady</text><line style="stroke: #A80036; stroke-width: 1.5;" x1="256" x2="526" y1="468" y2="468"/><ellipse cx="266" cy="479" fill="#84BE84" rx="3" ry="3" style="stroke: #038048; stroke-width: 1.0;"/><text fill="#000000" font-family="sans-serif" font-size="11" lengthAdjust="spacingAndGlyphs" textLength="205" x="275" y="481.6787">void AddPlayer (PlayerMeta playerMeta)</text><ellipse cx="266" cy="490" fill="#84BE84" rx="3" ry="3" style="stroke: #038048; stroke-width: 1.0;"/><text fill="#000000" font-family="sans-serif" font-size="11" lengthAdjust="spacingAndGlyphs" textLength="225" x="275" y="492.6787">void RemovePlayer (PlayerMeta playerMeta)</text><ellipse cx="266" cy="501" fill="#84BE84" rx="3" ry="3" style="stroke: #038048; stroke-width: 1.0;"/><text fill="#000000" font-family="sans-serif" font-size="11" lengthAdjust="spacingAndGlyphs" textLength="90" x="275" y="503.6787">void StartGame ()</text><!--class Meta.ReadyTimer--><rect fill="#FEFECE" filter="url(#ftg7qea1vz15f)" height="137" id="Meta.ReadyTimer" style="stroke: #A80036; stroke-width: 1.5;" width="206" x="321" y="187"/><ellipse cx="386.75" cy="203" fill="#ADD1B2" rx="11" ry="11" style="stroke: #A80036; stroke-width: 1.0;"/><path d="M390.1406,204.9844 Q389.7188,209.9688 386.4063,209.9688 Q384.4531,209.9688 383.4063,207.9688 Q382.5313,206.2969 382.5313,203.3594 Q382.5313,200.3438 383.5,198.5781 Q384.5,196.7031 386.4063,196.7031 Q389.4375,196.7031 390.0625,201.1406 L387.9844,201.1406 Q387.625,198.6719 386.4063,198.6719 Q384.6719,198.6719 384.6719,203.3594 Q384.6719,208 386.4219,208 Q387.8594,208 388.0156,204.9844 L390.1406,204.9844 Z "/><text fill="#000000" font-family="sans-serif" font-size="12" lengthAdjust="spacingAndGlyphs" textLength="66" x="407.25" y="207.5586">ReadyTimer</text><line style="stroke: #A80036; stroke-width: 1.5;" x1="322" x2="526" y1="219" y2="219"/><ellipse cx="332" cy="245" fill="none" rx="3" ry="3" style="stroke: #038048; stroke-width: 1.0;"/><text fill="#000000" font-family="sans-serif" font-size="11" lengthAdjust="spacingAndGlyphs" textLength="103" x="341" y="247.6787">int MaxTimeSecond</text><line style="stroke: #A80036; stroke-width: 1.0; stroke-dasharray: 1.0,2.0;" x1="322" x2="395.5" y1="232.5" y2="232.5"/><text fill="#000000" font-family="sans-serif" font-size="11" lengthAdjust="spacingAndGlyphs" textLength="57" x="395.5" y="236.1787">serializable</text><line style="stroke: #A80036; stroke-width: 1.0; stroke-dasharray: 1.0,2.0;" x1="452.5" x2="526" y1="232.5" y2="232.5"/><line style="stroke: #A80036; stroke-width: 1.0; stroke-dasharray: 1.0,2.0;" x1="322" x2="526" y1="253" y2="253"/><polygon fill="none" points="332,260,328,266,336,266" style="stroke: #1963A0; stroke-width: 1.0;"/><text fill="#000000" font-family="sans-serif" font-size="11" lengthAdjust="spacingAndGlyphs" textLength="180" x="341" y="266.6787">ReactiveProperty&lt;bool&gt; IsRunning</text><polygon fill="none" points="332,271,328,277,336,277" style="stroke: #1963A0; stroke-width: 1.0;"/><text fill="#000000" font-family="sans-serif" font-size="11" lengthAdjust="spacingAndGlyphs" textLength="144" x="341" y="277.6787">ReactiveProperty&lt;int&gt; Time</text><polygon fill="none" points="332,282,328,288,336,288" style="stroke: #1963A0; stroke-width: 1.0;"/><text fill="#000000" font-family="sans-serif" font-size="11" lengthAdjust="spacingAndGlyphs" textLength="159" x="341" y="288.6787">IObservable&lt;bool&gt; OnTimeUp</text><line style="stroke: #A80036; stroke-width: 1.5;" x1="322" x2="526" y1="294" y2="294"/><ellipse cx="332" cy="305" fill="#84BE84" rx="3" ry="3" style="stroke: #038048; stroke-width: 1.0;"/><text fill="#000000" font-family="sans-serif" font-size="11" lengthAdjust="spacingAndGlyphs" textLength="90" x="341" y="307.6787">void StartTimer ()</text><ellipse cx="332" cy="316" fill="#84BE84" rx="3" ry="3" style="stroke: #038048; stroke-width: 1.0;"/><text fill="#000000" font-family="sans-serif" font-size="11" lengthAdjust="spacingAndGlyphs" textLength="90" x="341" y="318.6787">void StopTimer ()</text><!--class Meta.StopVote--><rect fill="#FEFECE" filter="url(#ftg7qea1vz15f)" height="70" id="Meta.StopVote" style="stroke: #A80036; stroke-width: 1.5;" width="208" x="58" y="57"/><ellipse cx="132.25" cy="73" fill="#ADD1B2" rx="11" ry="11" style="stroke: #A80036; stroke-width: 1.0;"/><path d="M135.6406,74.9844 Q135.2188,79.9688 131.9063,79.9688 Q129.9531,79.9688 128.9063,77.9688 Q128.0313,76.2969 128.0313,73.3594 Q128.0313,70.3438 129,68.5781 Q130,66.7031 131.9063,66.7031 Q134.9375,66.7031 135.5625,71.1406 L133.4844,71.1406 Q133.125,68.6719 131.9063,68.6719 Q130.1719,68.6719 130.1719,73.3594 Q130.1719,78 131.9219,78 Q133.3594,78 133.5156,74.9844 L135.6406,74.9844 Z "/><text fill="#000000" font-family="sans-serif" font-size="12" lengthAdjust="spacingAndGlyphs" textLength="51" x="152.75" y="77.5586">StopVote</text><line style="stroke: #A80036; stroke-width: 1.5;" x1="59" x2="265" y1="89" y2="89"/><polygon fill="none" points="69,96,65,102,73,102" style="stroke: #1963A0; stroke-width: 1.0;"/><text fill="#000000" font-family="sans-serif" font-size="11" lengthAdjust="spacingAndGlyphs" textLength="182" x="78" y="102.6787">ReactiveProperty&lt;int&gt; VotedCount</text><polygon fill="none" points="69,107,65,113,73,113" style="stroke: #1963A0; stroke-width: 1.0;"/><text fill="#000000" font-family="sans-serif" font-size="11" lengthAdjust="spacingAndGlyphs" textLength="146" x="78" y="113.6787">IObservable&lt;bool&gt; VotedAll</text><line style="stroke: #A80036; stroke-width: 1.5;" x1="59" x2="265" y1="119" y2="119"/><!--link Meta.PlayerMeta to Meta.PlayerMetaState--><path d="M160.578,323.666 C160.08,347.241 159.528,373.299 159.064,395.244 " fill="none" id="Meta.PlayerMeta-Meta.PlayerMetaState" style="stroke: #A80036; stroke-width: 1.0;"/><polygon fill="#A80036" points="158.954,400.44,163.1434,391.5266,159.0597,395.4411,155.1452,391.3574,158.954,400.44" style="stroke: #A80036; stroke-width: 1.0;"/><!--link Meta.PlayerMeta to Meta.Room--><path d="M243.382,323.666 C263.727,340.458 285.599,358.51 306.11,375.438 " fill="none" id="Meta.PlayerMeta-Meta.Room" style="stroke: #A80036; stroke-width: 1.0;"/><polygon fill="#FFFFFF" points="316.376,383.911,314.2947,377.0068,307.121,376.2726,309.2024,383.1768,316.376,383.911" style="stroke: #A80036; stroke-width: 1.0;"/><!--link Meta.Room to Meta.RoomState--><path d="M391,509.286 C391,527.449 391,546.956 391,563.827 " fill="none" id="Meta.Room-Meta.RoomState" style="stroke: #A80036; stroke-width: 1.0;"/><polygon fill="#A80036" points="391,568.973,395,559.973,391,563.973,387,559.973,391,568.973" style="stroke: #A80036; stroke-width: 1.0;"/><!--link Meta.ReadyTimer to Meta.Room--><path d="M412.179,324.2 C409.069,342.014 405.717,361.214 402.617,378.967 " fill="none" id="Meta.ReadyTimer-Meta.Room" style="stroke: #A80036; stroke-width: 1.0; stroke-dasharray: 7.0,7.0;"/><polygon fill="#A80036" points="401.75,383.933,407.2383,375.7551,402.61,379.0075,399.3575,374.3791,401.75,383.933" style="stroke: #A80036; stroke-width: 1.0;"/><!--link Meta.StopVote to Meta.PlayerMeta--><path d="M162,127.25 C162,143.246 162,162.935 162,182.003 " fill="none" id="Meta.StopVote-Meta.PlayerMeta" style="stroke: #A80036; stroke-width: 1.0; stroke-dasharray: 7.0,7.0;"/><polygon fill="#A80036" points="162,187.361,166,178.361,162,182.361,158,178.361,162,187.361" style="stroke: #A80036; stroke-width: 1.0;"/><!--
@startuml

namespace Meta {
  enum PlayerMetaState {
    WAITING
    READY
    STARTING
    PLAYING
  }

  enum RoomState {
    WAITING
    STARTING
    PLAYING
  }

  class PlayerNameFactory {
    + string MakePlayerName ()
  }

  class PlayerMeta {
    ~ ReactiveProperty<PlayerMetaState> State
    ~ ReactiveProperty<int> Score
    ~ ReactiveProperty<bool> IsVotedStopGame
    ~ string Name
    + void Init (string name)
    + void Ready ()
    + void CancelReady ()
    + void SetStartState ()
  }

  class Room {
    ~ ReactiveProperty<RoomState> State
    ~ ReactiveCollection<PlayerMeta> PlayerMetaList
    ~ ReactiveProperty<PlayerMeta> MyPlayerMeta
    ~ ReactiveProperty<bool> IsAllReady
    + void AddPlayer (PlayerMeta playerMeta)
    + void RemovePlayer (PlayerMeta playerMeta)
    + void StartGame ()
  }

  class ReadyTimer {
    .. serializable ..
    + int MaxTimeSecond
    ....
    ~ ReactiveProperty<bool> IsRunning
    ~ ReactiveProperty<int> Time
    ~ IObservable<bool> OnTimeUp
    ____
    + void StartTimer ()
    + void StopTimer ()
  }

  class StopVote {
    ~ ReactiveProperty<int> VotedCount
    ~ IObservable<bool> VotedAll
  }

  PlayerMeta - -> PlayerMetaState
  PlayerMeta - -o Room
  Room - -> RoomState
  ReadyTimer ..> Room
  StopVote ..> PlayerMeta
}

@enduml

PlantUML version 1.2017.12(Thu Apr 27 01:06:36 JST 2017)
(GPL source distribution)
Java Runtime: OpenJDK Runtime Environment
JVM: OpenJDK 64-Bit Server VM
Java Version: 1.8.0_112-release-736-b21
Operating System: Linux
OS Version: 4.10.0-35-generic
Default Encoding: UTF-8
Language: ja
Country: JP
--></g></svg>