<?xml version="1.0" encoding="UTF-8" standalone="no"?><svg xmlns="http://www.w3.org/2000/svg" xmlns:xlink="http://www.w3.org/1999/xlink" contentScriptType="application/ecmascript" contentStyleType="text/css" height="167.4px" preserveAspectRatio="none" style="width:213px;height:167px;" version="1.1" viewBox="0 0 213 167" width="213px" zoomAndPan="magnify"><defs><filter height="300%" id="fpsmgc32ik65p" width="300%" x="-1" y="-1"><feGaussianBlur result="blurOut" stdDeviation="1.2000000476837158"/><feColorMatrix in="blurOut" result="blurOut2" type="matrix" values="0 0 0 0 0 0 0 0 0 0 0 0 0 0 0 0 0 0 .4 0"/><feOffset dx="2.4000000953674316" dy="2.4000000953674316" in="blurOut2" result="blurOut3"/><feBlend in="SourceGraphic" in2="blurOut3" mode="normal"/></filter></defs><g><polygon fill="#FFFFFF" filter="url(#fpsmgc32ik65p)" points="108.9756,4.8,139.5756,4.8,143.7756,16.8,147.9756,16.8,147.9756,33.6,108.9756,33.6,108.9756,4.8" style="stroke: #000000; stroke-width: 1.2000000476837158;"/><line style="stroke: #000000; stroke-width: 1.2000000476837158;" x1="108.9756" x2="143.7756" y1="16.8" y2="16.8"/><text fill="#000000" font-family="sans-serif" font-size="8.4" font-weight="bold" lengthAdjust="spacingAndGlyphs" textLength="27" x="111.3756" y="13.391">Scene</text><polygon fill="#FFFFFF" filter="url(#fpsmgc32ik65p)" points="8.4755,134.4,34.8755,134.4,39.0755,146.4,43.2755,146.4,43.2755,163.2,8.4755,163.2,8.4755,134.4" style="stroke: #000000; stroke-width: 1.2000000476837158;"/><line style="stroke: #000000; stroke-width: 1.2000000476837158;" x1="8.4755" x2="39.0755" y1="146.4" y2="146.4"/><text fill="#000000" font-family="sans-serif" font-size="8.4" font-weight="bold" lengthAdjust="spacingAndGlyphs" textLength="22.8" x="10.8755" y="142.991">Meta</text><polygon fill="#FFFFFF" filter="url(#fpsmgc32ik65p)" points="15.9755,69.6,45.3755,69.6,49.5755,81.6,53.7755,81.6,53.7755,98.4,15.9755,98.4,15.9755,69.6" style="stroke: #000000; stroke-width: 1.2000000476837158;"/><line style="stroke: #000000; stroke-width: 1.2000000476837158;" x1="15.9755" x2="49.5755" y1="81.6" y2="81.6"/><text fill="#000000" font-family="sans-serif" font-size="8.4" font-weight="bold" lengthAdjust="spacingAndGlyphs" textLength="25.8" x="18.3755" y="78.191">Game</text><polygon fill="#FFFFFF" filter="url(#fpsmgc32ik65p)" points="64.5756,134.4,116.7756,134.4,120.9756,146.4,125.1756,146.4,125.1756,163.2,64.5756,163.2,64.5756,134.4" style="stroke: #000000; stroke-width: 1.2000000476837158;"/><line style="stroke: #000000; stroke-width: 1.2000000476837158;" x1="64.5756" x2="120.9756" y1="146.4" y2="146.4"/><text fill="#000000" font-family="sans-serif" font-size="8.4" font-weight="bold" lengthAdjust="spacingAndGlyphs" textLength="48.6" x="66.9756" y="142.991">GameMeta</text><polygon fill="#FFFFFF" filter="url(#fpsmgc32ik65p)" points="24.0755,4.8,37.2755,4.8,41.4755,16.8,45.6755,16.8,45.6755,33.6,24.0755,33.6,24.0755,4.8" style="stroke: #000000; stroke-width: 1.2000000476837158;"/><line style="stroke: #000000; stroke-width: 1.2000000476837158;" x1="24.0755" x2="41.4755" y1="16.8" y2="16.8"/><text fill="#000000" font-family="sans-serif" font-size="8.4" font-weight="bold" lengthAdjust="spacingAndGlyphs" textLength="9.6" x="26.4755" y="13.391">UI</text><polygon fill="#FFFFFF" filter="url(#fpsmgc32ik65p)" points="169.2756,4.8,200.4756,4.8,204.6756,16.8,208.8756,16.8,208.8756,33.6,169.2756,33.6,169.2756,4.8" style="stroke: #000000; stroke-width: 1.2000000476837158;"/><line style="stroke: #000000; stroke-width: 1.2000000476837158;" x1="169.2756" x2="204.6756" y1="16.8" y2="16.8"/><text fill="#000000" font-family="sans-serif" font-size="8.4" font-weight="bold" lengthAdjust="spacingAndGlyphs" textLength="27.6" x="171.6756" y="13.391">Sound</text><!--link Scene to Meta--><path d="M117.3,33.7854 C99.2988,56.3136 63.7728,100.773 42.6981,127.1472 " fill="none" id="Scene-Meta" style="stroke: #A80036; stroke-width: 0.6000000238418579;"/><ellipse cx="40.0334" cy="130.4819" fill="#FFFFFF" rx="4.8" ry="4.8" style="stroke: #A80036; stroke-width: 0.6000000238418579;"/><line style="stroke: #A80036; stroke-width: 0.6000000238418579;" x1="43.0299" x2="37.037" y1="126.732" y2="134.2318"/><line style="stroke: #A80036; stroke-width: 0.6000000238418579;" x1="43.7833" x2="36.2836" y1="133.4783" y2="127.4855"/><!--link Scene to GameMeta--><path d="M135.8856,33.6138 C143.4612,49.686 152.9544,76.7802 144.0756,98.4 C139.3758,109.8437 130.635,120.0602 121.8102,128.2163 " fill="none" id="Scene-GameMeta" style="stroke: #A80036; stroke-width: 0.6000000238418579;"/><ellipse cx="118.417" cy="131.156" fill="#FFFFFF" rx="4.8" ry="4.8" style="stroke: #A80036; stroke-width: 0.6000000238418579;"/><line style="stroke: #A80036; stroke-width: 0.6000000238418579;" x1="122.0443" x2="114.7896" y1="128.0124" y2="134.2996"/><line style="stroke: #A80036; stroke-width: 0.6000000238418579;" x1="121.5606" x2="115.2733" y1="134.7834" y2="127.5287"/><!--link Scene to Game--><path d="M108.8538,33.1326 C95.0676,42.5004 76.4664,55.1394 61.3656,65.4006 " fill="none" id="Scene-Game" style="stroke: #A80036; stroke-width: 0.6000000238418579;"/><ellipse cx="57.8019" cy="67.8213" fill="#FFFFFF" rx="4.8" ry="4.8" style="stroke: #A80036; stroke-width: 0.6000000238418579;"/><line style="stroke: #A80036; stroke-width: 0.6000000238418579;" x1="61.772" x2="53.8318" y1="65.1235" y2="70.5192"/><line style="stroke: #A80036; stroke-width: 0.6000000238418579;" x1="60.4998" x2="55.104" y1="71.7914" y2="63.8513"/><!--link UI to Meta--><path d="M24.0728,33.477 C17.2651,43.002 9.1,56.331 5.4755,69.6 C0.2965,88.56 6.8084,110.1799 13.8138,125.9398 " fill="none" id="UI-Meta" style="stroke: #A80036; stroke-width: 0.6000000238418579;"/><ellipse cx="15.7242" cy="129.9283" fill="#FFFFFF" rx="4.8" ry="4.8" style="stroke: #A80036; stroke-width: 0.6000000238418579;"/><line style="stroke: #A80036; stroke-width: 0.6000000238418579;" x1="13.6507" x2="17.7977" y1="125.5993" y2="134.2574"/><line style="stroke: #A80036; stroke-width: 0.6000000238418579;" x1="20.0533" x2="11.3952" y1="127.8548" y2="132.0018"/><!--link UI to GameMeta--><path d="M43.8635,33.6324 C50.0332,43.4442 58.1766,57.0474 64.2756,69.6 C73.209,87.987 81.4992,109.694 87.1908,125.6322 " fill="none" id="UI-GameMeta" style="stroke: #A80036; stroke-width: 0.6000000238418579;"/><ellipse cx="88.6369" cy="129.7521" fill="#FFFFFF" rx="4.8" ry="4.8" style="stroke: #A80036; stroke-width: 0.6000000238418579;"/><line style="stroke: #A80036; stroke-width: 0.6000000238418579;" x1="87.0469" x2="90.2268" y1="125.223" y2="134.2811"/><line style="stroke: #A80036; stroke-width: 0.6000000238418579;" x1="93.1659" x2="84.1078" y1="128.1621" y2="131.342"/><!--link UI to Game--><path d="M34.8755,33.6 C34.8755,41.3808 34.8755,51.3048 34.8755,60.243 " fill="none" id="UI-Game" style="stroke: #A80036; stroke-width: 0.6000000238418579;"/><ellipse cx="34.8755" cy="64.6068" fill="#FFFFFF" rx="4.8" ry="4.8" style="stroke: #A80036; stroke-width: 0.6000000238418579;"/><line style="stroke: #A80036; stroke-width: 0.6000000238418579;" x1="34.8755" x2="34.8755" y1="59.8068" y2="69.4068"/><line style="stroke: #A80036; stroke-width: 0.6000000238418579;" x1="39.6755" x2="30.0755" y1="64.6068" y2="64.6068"/><!--link Game to Meta--><path d="M32.9227,98.4 C31.8216,106.1808 30.4173,116.1049 29.1524,125.0431 " fill="none" id="Game-Meta" style="stroke: #A80036; stroke-width: 0.6000000238418579;"/><ellipse cx="28.5282" cy="129.4544" fill="#FFFFFF" rx="4.8" ry="4.8" style="stroke: #A80036; stroke-width: 0.6000000238418579;"/><line style="stroke: #A80036; stroke-width: 0.6000000238418579;" x1="29.2008" x2="27.8557" y1="124.7017" y2="134.207"/><line style="stroke: #A80036; stroke-width: 0.6000000238418579;" x1="33.2809" x2="23.7756" y1="130.1269" y2="128.7818"/><!--link Game to GameMeta--><path d="M47.8946,98.4 C55.9375,106.9258 66.4086,118.0249 75.423,127.5806 " fill="none" id="Game-GameMeta" style="stroke: #A80036; stroke-width: 0.6000000238418579;"/><ellipse cx="78.3806" cy="130.7155" fill="#FFFFFF" rx="4.8" ry="4.8" style="stroke: #A80036; stroke-width: 0.6000000238418579;"/><line style="stroke: #A80036; stroke-width: 0.6000000238418579;" x1="75.0868" x2="81.6744" y1="127.2239" y2="134.207"/><line style="stroke: #A80036; stroke-width: 0.6000000238418579;" x1="81.8722" x2="74.8891" y1="127.4217" y2="134.0093"/><!--
@startuml

namespace Scene {
}
namespace Meta {
}
namespace Game {
}
namespace GameMeta {
}
namespace UI {
}

namespace Sound {
}

Scene - -+ Meta
Scene - -+ GameMeta
Scene - -+ Game

UI - -+ Meta
UI - -+ GameMeta
UI - -+ Game

Game - -+ Meta
Game - -+ GameMeta

@enduml

PlantUML version 1.2017.12(Thu Apr 27 01:06:36 JST 2017)
(GPL source distribution)
Java Runtime: OpenJDK Runtime Environment
JVM: OpenJDK 64-Bit Server VM
Java Version: 1.8.0_112-release-736-b21
Operating System: Linux
OS Version: 4.10.0-32-generic
Default Encoding: UTF-8
Language: ja
Country: JP
--></g></svg>