<?xml version="1.0" encoding="UTF-8" standalone="no"?><svg xmlns="http://www.w3.org/2000/svg" xmlns:xlink="http://www.w3.org/1999/xlink" contentScriptType="application/ecmascript" contentStyleType="text/css" height="559px" preserveAspectRatio="none" style="width:1069px;height:559px;" version="1.1" viewBox="0 0 1069 559" width="1069px" zoomAndPan="magnify"><defs><filter height="300%" id="fpd8h5vkutl0n" width="300%" x="-1" y="-1"><feGaussianBlur result="blurOut" stdDeviation="2.0"/><feColorMatrix in="blurOut" result="blurOut2" type="matrix" values="0 0 0 0 0 0 0 0 0 0 0 0 0 0 0 0 0 0 .4 0"/><feOffset dx="4.0" dy="4.0" in="blurOut2" result="blurOut3"/><feBlend in="SourceGraphic" in2="blurOut3" mode="normal"/></filter></defs><g><!--cluster Scene--><polygon fill="#FFFFFF" filter="url(#fpd8h5vkutl0n)" points="22,24.5,73,24.5,80,44.5,738,44.5,738,422,22,422,22,24.5" style="stroke: #000000; stroke-width: 2.0;"/><line style="stroke: #000000; stroke-width: 2.0;" x1="22" x2="80" y1="44.5" y2="44.5"/><text fill="#000000" font-family="sans-serif" font-size="14" font-weight="bold" lengthAdjust="spacingAndGlyphs" textLength="45" x="26" y="38.8184">Scene</text><!--cluster Meta--><polygon fill="#FFFFFF" filter="url(#fpd8h5vkutl0n)" points="213,455,257,455,264,475,867,475,867,552,213,552,213,455" style="stroke: #000000; stroke-width: 2.0;"/><line style="stroke: #000000; stroke-width: 2.0;" x1="213" x2="264" y1="475" y2="475"/><text fill="#000000" font-family="sans-serif" font-size="14" font-weight="bold" lengthAdjust="spacingAndGlyphs" textLength="38" x="217" y="469.3184">Meta</text><!--cluster Game--><polygon fill="#FFFFFF" filter="url(#fpd8h5vkutl0n)" points="762,319.5,811,319.5,818,339.5,910,339.5,910,416.5,762,416.5,762,319.5" style="stroke: #000000; stroke-width: 2.0;"/><line style="stroke: #000000; stroke-width: 2.0;" x1="762" x2="818" y1="339.5" y2="339.5"/><text fill="#000000" font-family="sans-serif" font-size="14" font-weight="bold" lengthAdjust="spacingAndGlyphs" textLength="43" x="766" y="333.8184">Game</text><!--cluster GameMeta--><polygon fill="#FFFFFF" filter="url(#fpd8h5vkutl0n)" points="934,319.5,1021,319.5,1028,339.5,1062,339.5,1062,416.5,934,416.5,934,319.5" style="stroke: #000000; stroke-width: 2.0;"/><line style="stroke: #000000; stroke-width: 2.0;" x1="934" x2="1028" y1="339.5" y2="339.5"/><text fill="#000000" font-family="sans-serif" font-size="14" font-weight="bold" lengthAdjust="spacingAndGlyphs" textLength="81" x="938" y="333.8184">GameMeta</text><!--class Scene.SceneMaster--><rect fill="#FEFECE" filter="url(#fpd8h5vkutl0n)" height="59" id="Scene.SceneMaster" style="stroke: #A80036; stroke-width: 1.5;" width="275" x="38.5" y="347"/><ellipse cx="134.75" cy="363" fill="#ADD1B2" rx="11" ry="11" style="stroke: #A80036; stroke-width: 1.0;"/><path d="M138.1406,364.9844 Q137.7188,369.9688 134.4063,369.9688 Q132.4531,369.9688 131.4063,367.9688 Q130.5313,366.2969 130.5313,363.3594 Q130.5313,360.3438 131.5,358.5781 Q132.5,356.7031 134.4063,356.7031 Q137.4375,356.7031 138.0625,361.1406 L135.9844,361.1406 Q135.625,358.6719 134.4063,358.6719 Q132.6719,358.6719 132.6719,363.3594 Q132.6719,368 134.4219,368 Q135.8594,368 136.0156,364.9844 L138.1406,364.9844 Z "/><text fill="#000000" font-family="sans-serif" font-size="12" lengthAdjust="spacingAndGlyphs" textLength="74" x="155.25" y="367.5586">SceneMaster</text><line style="stroke: #A80036; stroke-width: 1.5;" x1="39.5" x2="312.5" y1="379" y2="379"/><polygon fill="none" points="49.5,386,45.5,392,53.5,392" style="stroke: #1963A0; stroke-width: 1.0;"/><text fill="#000000" font-family="sans-serif" font-size="11" lengthAdjust="spacingAndGlyphs" textLength="249" x="58.5" y="392.6787">ReactiveProperty&lt;AbstractScene&gt; CurrentScene</text><line style="stroke: #A80036; stroke-width: 1.5;" x1="39.5" x2="312.5" y1="398" y2="398"/><!--class Scene.AbstractScene--><rect fill="#FEFECE" filter="url(#fpd8h5vkutl0n)" height="48" id="Scene.AbstractScene" style="stroke: #A80036; stroke-width: 1.5;" width="114" x="251" y="210.5"/><ellipse cx="266" cy="226.5" fill="#A9DCDF" rx="11" ry="11" style="stroke: #A80036; stroke-width: 1.0;"/><path d="M264.9844,220.0469 L267.2031,220.0469 L270.4219,232.6406 L268.25,232.6406 L267.3438,228.75 L264.8438,228.75 L263.9375,232.6406 L261.7656,232.6406 L264.9844,220.0469 Z M266.0938,223.1875 L265.2656,226.875 L266.9063,226.875 L266.0938,223.1875 Z "/><text fill="#000000" font-family="sans-serif" font-size="12" font-style="italic" lengthAdjust="spacingAndGlyphs" textLength="82" x="280" y="231.0586">AbstractScene</text><line style="stroke: #A80036; stroke-width: 1.5;" x1="252" x2="364" y1="242.5" y2="242.5"/><line style="stroke: #A80036; stroke-width: 1.5;" x1="252" x2="364" y1="250.5" y2="250.5"/><!--class Scene.StartScene--><rect fill="#FEFECE" filter="url(#fpd8h5vkutl0n)" height="70" id="Scene.StartScene" style="stroke: #A80036; stroke-width: 1.5;" width="117" x="190.5" y="68.5"/><ellipse cx="216.3" cy="84.5" fill="#ADD1B2" rx="11" ry="11" style="stroke: #A80036; stroke-width: 1.0;"/><path d="M219.6906,86.4844 Q219.2688,91.4688 215.9563,91.4688 Q214.0031,91.4688 212.9563,89.4688 Q212.0813,87.7969 212.0813,84.8594 Q212.0813,81.8438 213.05,80.0781 Q214.05,78.2031 215.9563,78.2031 Q218.9875,78.2031 219.6125,82.6406 L217.5344,82.6406 Q217.175,80.1719 215.9563,80.1719 Q214.2219,80.1719 214.2219,84.8594 Q214.2219,89.5 215.9719,89.5 Q217.4094,89.5 217.5656,86.4844 L219.6906,86.4844 Z "/><text fill="#000000" font-family="sans-serif" font-size="12" lengthAdjust="spacingAndGlyphs" textLength="61" x="232.7" y="89.0586">StartScene</text><line style="stroke: #A80036; stroke-width: 1.5;" x1="191.5" x2="306.5" y1="100.5" y2="100.5"/><line style="stroke: #A80036; stroke-width: 1.5;" x1="191.5" x2="306.5" y1="108.5" y2="108.5"/><ellipse cx="201.5" cy="119.5" fill="#84BE84" rx="3" ry="3" style="stroke: #038048; stroke-width: 1.0;"/><text fill="#000000" font-family="sans-serif" font-size="11" lengthAdjust="spacingAndGlyphs" textLength="91" x="210.5" y="122.1787">void GoToRoby ()</text><rect fill="#F24D5C" height="6" style="stroke: #C82930; stroke-width: 1.0;" width="6" x="198.5" y="127.5"/><text fill="#000000" font-family="sans-serif" font-size="11" lengthAdjust="spacingAndGlyphs" textLength="91" x="210.5" y="133.1787">void LeaveRoby ()</text><!--class Scene.RobyScene--><rect fill="#FEFECE" filter="url(#fpd8h5vkutl0n)" height="92" id="Scene.RobyScene" style="stroke: #A80036; stroke-width: 1.5;" width="221" x="342.5" y="57.5"/><ellipse cx="417.25" cy="73.5" fill="#ADD1B2" rx="11" ry="11" style="stroke: #A80036; stroke-width: 1.0;"/><path d="M420.6406,75.4844 Q420.2188,80.4688 416.9063,80.4688 Q414.9531,80.4688 413.9063,78.4688 Q413.0313,76.7969 413.0313,73.8594 Q413.0313,70.8438 414,69.0781 Q415,67.2031 416.9063,67.2031 Q419.9375,67.2031 420.5625,71.6406 L418.4844,71.6406 Q418.125,69.1719 416.9063,69.1719 Q415.1719,69.1719 415.1719,73.8594 Q415.1719,78.5 416.9219,78.5 Q418.3594,78.5 418.5156,75.4844 L420.6406,75.4844 Z "/><text fill="#000000" font-family="sans-serif" font-size="12" lengthAdjust="spacingAndGlyphs" textLength="63" x="437.75" y="78.0586">RobyScene</text><line style="stroke: #A80036; stroke-width: 1.5;" x1="343.5" x2="562.5" y1="89.5" y2="89.5"/><line style="stroke: #A80036; stroke-width: 1.5;" x1="343.5" x2="562.5" y1="97.5" y2="97.5"/><ellipse cx="353.5" cy="108.5" fill="#84BE84" rx="3" ry="3" style="stroke: #038048; stroke-width: 1.0;"/><text fill="#000000" font-family="sans-serif" font-size="11" lengthAdjust="spacingAndGlyphs" textLength="89" x="362.5" y="111.1787">void GoToStart ()</text><ellipse cx="353.5" cy="119.5" fill="#84BE84" rx="3" ry="3" style="stroke: #038048; stroke-width: 1.0;"/><text fill="#000000" font-family="sans-serif" font-size="11" lengthAdjust="spacingAndGlyphs" textLength="95" x="362.5" y="122.1787">void GoToGame ()</text><rect fill="#F24D5C" height="6" style="stroke: #C82930; stroke-width: 1.0;" width="6" x="350.5" y="127.5"/><text fill="#000000" font-family="sans-serif" font-size="11" lengthAdjust="spacingAndGlyphs" textLength="195" x="362.5" y="133.1787">Room EnterRoom (PlayerMeta player)</text><rect fill="#F24D5C" height="6" style="stroke: #C82930; stroke-width: 1.0;" width="6" x="350.5" y="138.5"/><text fill="#000000" font-family="sans-serif" font-size="11" lengthAdjust="spacingAndGlyphs" textLength="136" x="362.5" y="144.1787">PlayerMeta CreatePlayer ()</text><!--class Scene.GameScene--><rect fill="#FEFECE" filter="url(#fpd8h5vkutl0n)" height="81" id="Scene.GameScene" style="stroke: #A80036; stroke-width: 1.5;" width="123" x="598.5" y="63"/><ellipse cx="623.85" cy="79" fill="#ADD1B2" rx="11" ry="11" style="stroke: #A80036; stroke-width: 1.0;"/><path d="M627.2406,80.9844 Q626.8188,85.9688 623.5063,85.9688 Q621.5531,85.9688 620.5063,83.9688 Q619.6313,82.2969 619.6313,79.3594 Q619.6313,76.3438 620.6,74.5781 Q621.6,72.7031 623.5063,72.7031 Q626.5375,72.7031 627.1625,77.1406 L625.0844,77.1406 Q624.725,74.6719 623.5063,74.6719 Q621.7719,74.6719 621.7719,79.3594 Q621.7719,84 623.5219,84 Q624.9594,84 625.1156,80.9844 L627.2406,80.9844 Z "/><text fill="#000000" font-family="sans-serif" font-size="12" lengthAdjust="spacingAndGlyphs" textLength="68" x="640.15" y="83.5586">GameScene</text><line style="stroke: #A80036; stroke-width: 1.5;" x1="599.5" x2="720.5" y1="95" y2="95"/><line style="stroke: #A80036; stroke-width: 1.5;" x1="599.5" x2="720.5" y1="103" y2="103"/><ellipse cx="609.5" cy="114" fill="#84BE84" rx="3" ry="3" style="stroke: #038048; stroke-width: 1.0;"/><text fill="#000000" font-family="sans-serif" font-size="11" lengthAdjust="spacingAndGlyphs" textLength="91" x="618.5" y="116.6787">void GoToRoby ()</text><ellipse cx="609.5" cy="125" fill="#84BE84" rx="3" ry="3" style="stroke: #038048; stroke-width: 1.0;"/><text fill="#000000" font-family="sans-serif" font-size="11" lengthAdjust="spacingAndGlyphs" textLength="97" x="618.5" y="127.6787">void GoToResult ()</text><ellipse cx="609.5" cy="136" fill="#84BE84" rx="3" ry="3" style="stroke: #038048; stroke-width: 1.0;"/><text fill="#000000" font-family="sans-serif" font-size="11" lengthAdjust="spacingAndGlyphs" textLength="90" x="618.5" y="138.6787">void StopGame ()</text><!--class Scene.ResultScene--><rect fill="#FEFECE" filter="url(#fpd8h5vkutl0n)" height="70" id="Scene.ResultScene" style="stroke: #A80036; stroke-width: 1.5;" width="117" x="38.5" y="68.5"/><ellipse cx="60.25" cy="84.5" fill="#ADD1B2" rx="11" ry="11" style="stroke: #A80036; stroke-width: 1.0;"/><path d="M63.6406,86.4844 Q63.2188,91.4688 59.9063,91.4688 Q57.9531,91.4688 56.9063,89.4688 Q56.0313,87.7969 56.0313,84.8594 Q56.0313,81.8438 57,80.0781 Q58,78.2031 59.9063,78.2031 Q62.9375,78.2031 63.5625,82.6406 L61.4844,82.6406 Q61.125,80.1719 59.9063,80.1719 Q58.1719,80.1719 58.1719,84.8594 Q58.1719,89.5 59.9219,89.5 Q61.3594,89.5 61.5156,86.4844 L63.6406,86.4844 Z "/><text fill="#000000" font-family="sans-serif" font-size="12" lengthAdjust="spacingAndGlyphs" textLength="70" x="75.75" y="89.0586">ResultScene</text><line style="stroke: #A80036; stroke-width: 1.5;" x1="39.5" x2="154.5" y1="100.5" y2="100.5"/><line style="stroke: #A80036; stroke-width: 1.5;" x1="39.5" x2="154.5" y1="108.5" y2="108.5"/><ellipse cx="49.5" cy="119.5" fill="#84BE84" rx="3" ry="3" style="stroke: #038048; stroke-width: 1.0;"/><text fill="#000000" font-family="sans-serif" font-size="11" lengthAdjust="spacingAndGlyphs" textLength="89" x="58.5" y="122.1787">void GoToStart ()</text><ellipse cx="49.5" cy="130.5" fill="#84BE84" rx="3" ry="3" style="stroke: #038048; stroke-width: 1.0;"/><text fill="#000000" font-family="sans-serif" font-size="11" lengthAdjust="spacingAndGlyphs" textLength="91" x="58.5" y="133.1787">void GoToRoby ()</text><!--class Meta.Room--><rect fill="#FEFECE" filter="url(#fpd8h5vkutl0n)" height="48" id="Meta.Room" style="stroke: #A80036; stroke-width: 1.5;" width="64" x="229" y="488"/><ellipse cx="244" cy="504" fill="#ADD1B2" rx="11" ry="11" style="stroke: #A80036; stroke-width: 1.0;"/><path d="M247.3906,505.9844 Q246.9688,510.9688 243.6563,510.9688 Q241.7031,510.9688 240.6563,508.9688 Q239.7813,507.2969 239.7813,504.3594 Q239.7813,501.3438 240.75,499.5781 Q241.75,497.7031 243.6563,497.7031 Q246.6875,497.7031 247.3125,502.1406 L245.2344,502.1406 Q244.875,499.6719 243.6563,499.6719 Q241.9219,499.6719 241.9219,504.3594 Q241.9219,509 243.6719,509 Q245.1094,509 245.2656,505.9844 L247.3906,505.9844 Z "/><text fill="#000000" font-family="sans-serif" font-size="12" lengthAdjust="spacingAndGlyphs" textLength="32" x="258" y="508.5586">Room</text><line style="stroke: #A80036; stroke-width: 1.5;" x1="230" x2="292" y1="520" y2="520"/><line style="stroke: #A80036; stroke-width: 1.5;" x1="230" x2="292" y1="528" y2="528"/><!--class Meta.PlayerMeta--><rect fill="#FEFECE" filter="url(#fpd8h5vkutl0n)" height="48" id="Meta.PlayerMeta" style="stroke: #A80036; stroke-width: 1.5;" width="95" x="461.5" y="488"/><ellipse cx="476.5" cy="504" fill="#ADD1B2" rx="11" ry="11" style="stroke: #A80036; stroke-width: 1.0;"/><path d="M479.8906,505.9844 Q479.4688,510.9688 476.1563,510.9688 Q474.2031,510.9688 473.1563,508.9688 Q472.2813,507.2969 472.2813,504.3594 Q472.2813,501.3438 473.25,499.5781 Q474.25,497.7031 476.1563,497.7031 Q479.1875,497.7031 479.8125,502.1406 L477.7344,502.1406 Q477.375,499.6719 476.1563,499.6719 Q474.4219,499.6719 474.4219,504.3594 Q474.4219,509 476.1719,509 Q477.6094,509 477.7656,505.9844 L479.8906,505.9844 Z "/><text fill="#000000" font-family="sans-serif" font-size="12" lengthAdjust="spacingAndGlyphs" textLength="63" x="490.5" y="508.5586">PlayerMeta</text><line style="stroke: #A80036; stroke-width: 1.5;" x1="462.5" x2="555.5" y1="520" y2="520"/><line style="stroke: #A80036; stroke-width: 1.5;" x1="462.5" x2="555.5" y1="528" y2="528"/><!--class Meta.PlayerNameFactory--><rect fill="#FEFECE" filter="url(#fpd8h5vkutl0n)" height="48" id="Meta.PlayerNameFactory" style="stroke: #A80036; stroke-width: 1.5;" width="141" x="591.5" y="488"/><ellipse cx="606.5" cy="504" fill="#ADD1B2" rx="11" ry="11" style="stroke: #A80036; stroke-width: 1.0;"/><path d="M609.8906,505.9844 Q609.4688,510.9688 606.1563,510.9688 Q604.2031,510.9688 603.1563,508.9688 Q602.2813,507.2969 602.2813,504.3594 Q602.2813,501.3438 603.25,499.5781 Q604.25,497.7031 606.1563,497.7031 Q609.1875,497.7031 609.8125,502.1406 L607.7344,502.1406 Q607.375,499.6719 606.1563,499.6719 Q604.4219,499.6719 604.4219,504.3594 Q604.4219,509 606.1719,509 Q607.6094,509 607.7656,505.9844 L609.8906,505.9844 Z "/><text fill="#000000" font-family="sans-serif" font-size="12" lengthAdjust="spacingAndGlyphs" textLength="109" x="620.5" y="508.5586">PlayerNameFactory</text><line style="stroke: #A80036; stroke-width: 1.5;" x1="592.5" x2="731.5" y1="520" y2="520"/><line style="stroke: #A80036; stroke-width: 1.5;" x1="592.5" x2="731.5" y1="528" y2="528"/><!--class Meta.ReadyTimer--><rect fill="#FEFECE" filter="url(#fpd8h5vkutl0n)" height="48" id="Meta.ReadyTimer" style="stroke: #A80036; stroke-width: 1.5;" width="98" x="328" y="488"/><ellipse cx="343" cy="504" fill="#ADD1B2" rx="11" ry="11" style="stroke: #A80036; stroke-width: 1.0;"/><path d="M346.3906,505.9844 Q345.9688,510.9688 342.6563,510.9688 Q340.7031,510.9688 339.6563,508.9688 Q338.7813,507.2969 338.7813,504.3594 Q338.7813,501.3438 339.75,499.5781 Q340.75,497.7031 342.6563,497.7031 Q345.6875,497.7031 346.3125,502.1406 L344.2344,502.1406 Q343.875,499.6719 342.6563,499.6719 Q340.9219,499.6719 340.9219,504.3594 Q340.9219,509 342.6719,509 Q344.1094,509 344.2656,505.9844 L346.3906,505.9844 Z "/><text fill="#000000" font-family="sans-serif" font-size="12" lengthAdjust="spacingAndGlyphs" textLength="66" x="357" y="508.5586">ReadyTimer</text><line style="stroke: #A80036; stroke-width: 1.5;" x1="329" x2="425" y1="520" y2="520"/><line style="stroke: #A80036; stroke-width: 1.5;" x1="329" x2="425" y1="528" y2="528"/><!--class Meta.StopVote--><rect fill="#FEFECE" filter="url(#fpd8h5vkutl0n)" height="48" id="Meta.StopVote" style="stroke: #A80036; stroke-width: 1.5;" width="83" x="767.5" y="488"/><ellipse cx="782.5" cy="504" fill="#ADD1B2" rx="11" ry="11" style="stroke: #A80036; stroke-width: 1.0;"/><path d="M785.8906,505.9844 Q785.4688,510.9688 782.1563,510.9688 Q780.2031,510.9688 779.1563,508.9688 Q778.2813,507.2969 778.2813,504.3594 Q778.2813,501.3438 779.25,499.5781 Q780.25,497.7031 782.1563,497.7031 Q785.1875,497.7031 785.8125,502.1406 L783.7344,502.1406 Q783.375,499.6719 782.1563,499.6719 Q780.4219,499.6719 780.4219,504.3594 Q780.4219,509 782.1719,509 Q783.6094,509 783.7656,505.9844 L785.8906,505.9844 Z "/><text fill="#000000" font-family="sans-serif" font-size="12" lengthAdjust="spacingAndGlyphs" textLength="51" x="796.5" y="508.5586">StopVote</text><line style="stroke: #A80036; stroke-width: 1.5;" x1="768.5" x2="849.5" y1="520" y2="520"/><line style="stroke: #A80036; stroke-width: 1.5;" x1="768.5" x2="849.5" y1="528" y2="528"/><!--class Game.GameManager--><rect fill="#FEFECE" filter="url(#fpd8h5vkutl0n)" height="48" id="Game.GameManager" style="stroke: #A80036; stroke-width: 1.5;" width="115" x="778.5" y="352.5"/><ellipse cx="793.5" cy="368.5" fill="#ADD1B2" rx="11" ry="11" style="stroke: #A80036; stroke-width: 1.0;"/><path d="M796.8906,370.4844 Q796.4688,375.4688 793.1563,375.4688 Q791.2031,375.4688 790.1563,373.4688 Q789.2813,371.7969 789.2813,368.8594 Q789.2813,365.8438 790.25,364.0781 Q791.25,362.2031 793.1563,362.2031 Q796.1875,362.2031 796.8125,366.6406 L794.7344,366.6406 Q794.375,364.1719 793.1563,364.1719 Q791.4219,364.1719 791.4219,368.8594 Q791.4219,373.5 793.1719,373.5 Q794.6094,373.5 794.7656,370.4844 L796.8906,370.4844 Z "/><text fill="#000000" font-family="sans-serif" font-size="12" lengthAdjust="spacingAndGlyphs" textLength="83" x="807.5" y="373.0586">GameManager</text><line style="stroke: #A80036; stroke-width: 1.5;" x1="779.5" x2="892.5" y1="384.5" y2="384.5"/><line style="stroke: #A80036; stroke-width: 1.5;" x1="779.5" x2="892.5" y1="392.5" y2="392.5"/><!--class GameMeta.GameTimer--><rect fill="#FEFECE" filter="url(#fpd8h5vkutl0n)" height="48" id="GameMeta.GameTimer" style="stroke: #A80036; stroke-width: 1.5;" width="96" x="950" y="352.5"/><ellipse cx="965" cy="368.5" fill="#ADD1B2" rx="11" ry="11" style="stroke: #A80036; stroke-width: 1.0;"/><path d="M968.3906,370.4844 Q967.9688,375.4688 964.6563,375.4688 Q962.7031,375.4688 961.6563,373.4688 Q960.7813,371.7969 960.7813,368.8594 Q960.7813,365.8438 961.75,364.0781 Q962.75,362.2031 964.6563,362.2031 Q967.6875,362.2031 968.3125,366.6406 L966.2344,366.6406 Q965.875,364.1719 964.6563,364.1719 Q962.9219,364.1719 962.9219,368.8594 Q962.9219,373.5 964.6719,373.5 Q966.1094,373.5 966.2656,370.4844 L968.3906,370.4844 Z "/><text fill="#000000" font-family="sans-serif" font-size="12" lengthAdjust="spacingAndGlyphs" textLength="64" x="979" y="373.0586">GameTimer</text><line style="stroke: #A80036; stroke-width: 1.5;" x1="951" x2="1045" y1="384.5" y2="384.5"/><line style="stroke: #A80036; stroke-width: 1.5;" x1="951" x2="1045" y1="392.5" y2="392.5"/><!--link Scene.StartScene to Scene.AbstractScene--><path d="M264.656,138.731 C272.107,155.021 281.081,174.643 288.926,191.796 " fill="none" id="Scene.StartScene-Scene.AbstractScene" style="stroke: #A80036; stroke-width: 1.0;"/><polygon fill="none" points="295.357,189.027,297.31,210.126,282.625,194.85,295.357,189.027" style="stroke: #A80036; stroke-width: 1.0;"/><!--link Scene.RobyScene to Scene.AbstractScene--><path d="M402.286,149.618 C384.923,165.065 365.723,182.146 349.205,196.842 " fill="none" id="Scene.RobyScene-Scene.AbstractScene" style="stroke: #A80036; stroke-width: 1.0;"/><polygon fill="none" points="353.639,202.267,334.043,210.33,344.333,191.807,353.639,202.267" style="stroke: #A80036; stroke-width: 1.0;"/><!--link Scene.GameScene to Scene.AbstractScene--><path d="M598.121,141.418 C592.412,144.313 586.65,147.057 581,149.5 C516.748,177.284 440.346,199.968 384.73,214.728 " fill="none" id="Scene.GameScene-Scene.AbstractScene" style="stroke: #A80036; stroke-width: 1.0;"/><polygon fill="none" points="386.36,221.537,365.242,219.803,382.833,207.989,386.36,221.537" style="stroke: #A80036; stroke-width: 1.0;"/><!--link Scene.ResultScene to Scene.AbstractScene--><path d="M152.714,138.562 C183.741,157.531 222.224,181.059 253.117,199.946 " fill="none" id="Scene.ResultScene-Scene.AbstractScene" style="stroke: #A80036; stroke-width: 1.0;"/><polygon fill="none" points="256.903,194.056,270.315,210.461,249.6,206.001,256.903,194.056" style="stroke: #A80036; stroke-width: 1.0;"/><!--link Scene.AbstractScene to Scene.SceneMaster--><path d="M286.203,258.618 C266.098,279.941 235.866,312.005 212.149,337.16 " fill="none" id="Scene.AbstractScene-Scene.SceneMaster" style="stroke: #A80036; stroke-width: 1.0;"/><polygon fill="#FFFFFF" points="203.088,346.77,210.1145,345.1487,211.3204,338.0392,204.2939,339.6604,203.088,346.77" style="stroke: #A80036; stroke-width: 1.0;"/><!--link Scene.AbstractScene to Meta.Room--><path d="M318.296,258.603 C333.505,296.344 357.475,372.75 331,430 C326.103,440.589 319.077,438.582 311,447 C300.132,458.326 289.261,471.9051 280.444,483.6352 " fill="none" id="Scene.AbstractScene-Meta.Room" style="stroke: #A80036; stroke-width: 1.0;"/><polygon fill="#A80036" points="277.293,487.8655,285.8772,483.0373,280.2799,483.8557,279.4615,478.2583,277.293,487.8655" style="stroke: #A80036; stroke-width: 1.0;"/><!--link Scene.RobyScene to Meta.PlayerMeta--><path d="M459.709,149.701 C461.145,159.522 462.638,169.857 464,179.5 C479.844,291.707 497.676,425.437 505.263,482.7041 " fill="none" id="Scene.RobyScene-Meta.PlayerMeta" style="stroke: #A80036; stroke-width: 1.0;"/><polygon fill="#A80036" points="505.921,487.6775,508.7049,478.2303,505.2646,482.7208,500.7741,479.2805,505.921,487.6775" style="stroke: #A80036; stroke-width: 1.0;"/><text fill="#000000" font-family="sans-serif" font-size="13" lengthAdjust="spacingAndGlyphs" textLength="38" x="482" y="300.9385">create</text><!--link Scene.RobyScene to Meta.PlayerNameFactory--><path d="M476.165,149.556 C519.549,233.937 611.88,413.518 647.533,482.8622 " fill="none" id="Scene.RobyScene-Meta.PlayerNameFactory" style="stroke: #A80036; stroke-width: 1.0;"/><polygon fill="#A80036" points="650.001,487.6616,649.4434,477.8285,647.7149,483.2148,642.3286,481.4863,650.001,487.6616" style="stroke: #A80036; stroke-width: 1.0;"/><!--link Scene.RobyScene to Meta.ReadyTimer--><path d="M444.576,149.556 C428.832,233.768 395.36,412.8 382.339,482.4448 " fill="none" id="Scene.RobyScene-Meta.ReadyTimer" style="stroke: #A80036; stroke-width: 1.0; stroke-dasharray: 7.0,7.0;"/><polygon fill="#A80036" points="381.363,487.6616,386.9486,479.5498,382.2817,482.7467,379.0848,478.0799,381.363,487.6616" style="stroke: #A80036; stroke-width: 1.0;"/><!--link Scene.GameScene to Meta.StopVote--><path d="M669.373,144.102 C684.792,206.426 718.214,330.543 762,430 C770.134,448.475 781.433,468.0815 790.914,483.3769 " fill="none" id="Scene.GameScene-Meta.StopVote" style="stroke: #A80036; stroke-width: 1.0; stroke-dasharray: 7.0,7.0;"/><polygon fill="#A80036" points="793.792,487.9793,792.4119,478.2276,791.1411,483.7399,785.6288,482.4691,793.792,487.9793" style="stroke: #A80036; stroke-width: 1.0;"/><!--link Scene.GameScene to Game.GameManager--><path d="M692.186,144.339 C700.837,155.52 710.006,167.818 718,179.5 C757.767,237.615 799.048,309.242 820.674,347.791 " fill="none" id="Scene.GameScene-Game.GameManager" style="stroke: #A80036; stroke-width: 1.0;"/><polygon fill="#A80036" points="823.212,352.326,822.3052,342.519,820.7692,347.9633,815.3249,346.4274,823.212,352.326" style="stroke: #A80036; stroke-width: 1.0;"/><!--link Scene.GameScene to GameMeta.GameTimer--><path d="M709.51,144.196 C779.525,200.332 905.561,301.385 965.119,349.137 " fill="none" id="Scene.GameScene-GameMeta.GameTimer" style="stroke: #A80036; stroke-width: 1.0; stroke-dasharray: 7.0,7.0;"/><polygon fill="#A80036" points="969.291,352.482,964.7721,343.731,965.3903,349.354,959.7673,349.9722,969.291,352.482" style="stroke: #A80036; stroke-width: 1.0;"/><!--
@startuml

namespace Scene {
  class SceneMaster {
    ~ ReactiveProperty<AbstractScene> CurrentScene
  }

  abstract AbstractScene

  class StartScene {
    + void GoToRoby ()
    - void LeaveRoby ()
  }

  class RobyScene {
    + void GoToStart ()
    + void GoToGame ()
    - Room EnterRoom (PlayerMeta player)
    - PlayerMeta CreatePlayer ()
  }

  class GameScene {
    + void GoToRoby ()
    + void GoToResult ()
    + void StopGame ()
  }

  class ResultScene {
    + void GoToStart ()
    + void GoToRoby ()
  }

  StartScene - -|> AbstractScene
  RobyScene - -|> AbstractScene
  GameScene - -|> AbstractScene
  ResultScene - -|> AbstractScene
  AbstractScene - -o SceneMaster
}

Scene.AbstractScene - - -> Meta.Room
Scene.RobyScene - - -> Meta.PlayerMeta : create
Scene.RobyScene - - -> Meta.PlayerNameFactory
Scene.RobyScene ...> Meta.ReadyTimer
Scene.GameScene ...> Meta.StopVote
Scene.GameScene - - -> Game.GameManager
Scene.GameScene ...> GameMeta.GameTimer

@enduml

PlantUML version 1.2017.12(Thu Apr 27 01:06:36 JST 2017)
(GPL source distribution)
Java Runtime: OpenJDK Runtime Environment
JVM: OpenJDK 64-Bit Server VM
Java Version: 1.8.0_112-release-736-b21
Operating System: Linux
OS Version: 4.10.0-35-generic
Default Encoding: UTF-8
Language: ja
Country: JP
--></g></svg>