<?xml version="1.0" encoding="UTF-8" standalone="no"?><svg xmlns="http://www.w3.org/2000/svg" xmlns:xlink="http://www.w3.org/1999/xlink" contentScriptType="application/ecmascript" contentStyleType="text/css" height="342px" preserveAspectRatio="none" style="width:993px;height:342px;" version="1.1" viewBox="0 0 993 342" width="993px" zoomAndPan="magnify"><defs><filter height="300%" id="fjzq2kq4ayl" width="300%" x="-1" y="-1"><feGaussianBlur result="blurOut" stdDeviation="2.0"/><feColorMatrix in="blurOut" result="blurOut2" type="matrix" values="0 0 0 0 0 0 0 0 0 0 0 0 0 0 0 0 0 0 .4 0"/><feOffset dx="4.0" dy="4.0" in="blurOut2" result="blurOut3"/><feBlend in="SourceGraphic" in2="blurOut3" mode="normal"/></filter></defs><g><!--cluster UI--><polygon fill="#FFFFFF" filter="url(#fjzq2kq4ayl)" points="56,24,78,24,85,44,986,44,986,166,56,166,56,24" style="stroke: #000000; stroke-width: 2.0;"/><line style="stroke: #000000; stroke-width: 2.0;" x1="56" x2="85" y1="44" y2="44"/><text fill="#000000" font-family="sans-serif" font-size="14" font-weight="bold" lengthAdjust="spacingAndGlyphs" textLength="16" x="60" y="38.3184">UI</text><!--cluster GameMeta--><polygon fill="#FFFFFF" filter="url(#fjzq2kq4ayl)" points="22,238,109,238,116,258,401,258,401,335,22,335,22,238" style="stroke: #000000; stroke-width: 2.0;"/><line style="stroke: #000000; stroke-width: 2.0;" x1="22" x2="116" y1="258" y2="258"/><text fill="#000000" font-family="sans-serif" font-size="14" font-weight="bold" lengthAdjust="spacingAndGlyphs" textLength="81" x="26" y="252.3184">GameMeta</text><!--cluster Game--><polygon fill="#FFFFFF" filter="url(#fjzq2kq4ayl)" points="425,238,474,238,481,258,674,258,674,335,425,335,425,238" style="stroke: #000000; stroke-width: 2.0;"/><line style="stroke: #000000; stroke-width: 2.0;" x1="425" x2="481" y1="258" y2="258"/><text fill="#000000" font-family="sans-serif" font-size="14" font-weight="bold" lengthAdjust="spacingAndGlyphs" textLength="43" x="429" y="252.3184">Game</text><!--cluster Game.Fruit--><polygon fill="#FFFFFF" filter="url(#fjzq2kq4ayl)" points="698,238,787,238,794,258,836,258,836,335,698,335,698,238" style="stroke: #000000; stroke-width: 2.0;"/><line style="stroke: #000000; stroke-width: 2.0;" x1="698" x2="794" y1="258" y2="258"/><text fill="#000000" font-family="sans-serif" font-size="14" font-weight="bold" lengthAdjust="spacingAndGlyphs" textLength="83" x="702" y="252.3184">Game.Fruit</text><!--cluster Meta--><polygon fill="#FFFFFF" filter="url(#fjzq2kq4ayl)" points="870,238,914,238,921,258,986,258,986,335,870,335,870,238" style="stroke: #000000; stroke-width: 2.0;"/><line style="stroke: #000000; stroke-width: 2.0;" x1="870" x2="921" y1="258" y2="258"/><text fill="#000000" font-family="sans-serif" font-size="14" font-weight="bold" lengthAdjust="spacingAndGlyphs" textLength="38" x="874" y="252.3184">Meta</text><!--class UI.FruitFever--><rect fill="#FEFECE" filter="url(#fjzq2kq4ayl)" height="59" id="UI.FruitFever" style="stroke: #A80036; stroke-width: 1.5;" width="119" x="72.5" y="74"/><ellipse cx="101.45" cy="90" fill="#ADD1B2" rx="11" ry="11" style="stroke: #A80036; stroke-width: 1.0;"/><path d="M104.8406,91.9844 Q104.4188,96.9688 101.1063,96.9688 Q99.1531,96.9688 98.1063,94.9688 Q97.2313,93.2969 97.2313,90.3594 Q97.2313,87.3438 98.2,85.5781 Q99.2,83.7031 101.1063,83.7031 Q104.1375,83.7031 104.7625,88.1406 L102.6844,88.1406 Q102.325,85.6719 101.1063,85.6719 Q99.3719,85.6719 99.3719,90.3594 Q99.3719,95 101.1219,95 Q102.5594,95 102.7156,91.9844 L104.8406,91.9844 Z "/><text fill="#000000" font-family="sans-serif" font-size="12" lengthAdjust="spacingAndGlyphs" textLength="56" x="118.55" y="94.5586">FruitFever</text><line style="stroke: #A80036; stroke-width: 1.5;" x1="73.5" x2="190.5" y1="106" y2="106"/><line style="stroke: #A80036; stroke-width: 1.5;" x1="73.5" x2="190.5" y1="114" y2="114"/><rect fill="#F24D5C" height="6" style="stroke: #C82930; stroke-width: 1.0;" width="6" x="80.5" y="122"/><text fill="#000000" font-family="sans-serif" font-size="11" lengthAdjust="spacingAndGlyphs" textLength="93" x="92.5" y="127.6787">void ShowEffect ()</text><!--class UI.Time--><rect fill="#FEFECE" filter="url(#fjzq2kq4ayl)" height="48" id="UI.Time" style="stroke: #A80036; stroke-width: 1.5;" width="59" x="346.5" y="79.5"/><ellipse cx="361.5" cy="95.5" fill="#ADD1B2" rx="11" ry="11" style="stroke: #A80036; stroke-width: 1.0;"/><path d="M364.8906,97.4844 Q364.4688,102.4688 361.1563,102.4688 Q359.2031,102.4688 358.1563,100.4688 Q357.2813,98.7969 357.2813,95.8594 Q357.2813,92.8438 358.25,91.0781 Q359.25,89.2031 361.1563,89.2031 Q364.1875,89.2031 364.8125,93.6406 L362.7344,93.6406 Q362.375,91.1719 361.1563,91.1719 Q359.4219,91.1719 359.4219,95.8594 Q359.4219,100.5 361.1719,100.5 Q362.6094,100.5 362.7656,97.4844 L364.8906,97.4844 Z "/><text fill="#000000" font-family="sans-serif" font-size="12" lengthAdjust="spacingAndGlyphs" textLength="27" x="375.5" y="100.0586">Time</text><line style="stroke: #A80036; stroke-width: 1.5;" x1="347.5" x2="404.5" y1="111.5" y2="111.5"/><line style="stroke: #A80036; stroke-width: 1.5;" x1="347.5" x2="404.5" y1="119.5" y2="119.5"/><!--class UI.InfoPanel--><rect fill="#FEFECE" filter="url(#fjzq2kq4ayl)" height="48" id="UI.InfoPanel" style="stroke: #A80036; stroke-width: 1.5;" width="84" x="227" y="79.5"/><ellipse cx="242" cy="95.5" fill="#ADD1B2" rx="11" ry="11" style="stroke: #A80036; stroke-width: 1.0;"/><path d="M245.3906,97.4844 Q244.9688,102.4688 241.6563,102.4688 Q239.7031,102.4688 238.6563,100.4688 Q237.7813,98.7969 237.7813,95.8594 Q237.7813,92.8438 238.75,91.0781 Q239.75,89.2031 241.6563,89.2031 Q244.6875,89.2031 245.3125,93.6406 L243.2344,93.6406 Q242.875,91.1719 241.6563,91.1719 Q239.9219,91.1719 239.9219,95.8594 Q239.9219,100.5 241.6719,100.5 Q243.1094,100.5 243.2656,97.4844 L245.3906,97.4844 Z "/><text fill="#000000" font-family="sans-serif" font-size="12" lengthAdjust="spacingAndGlyphs" textLength="52" x="256" y="100.0586">InfoPanel</text><line style="stroke: #A80036; stroke-width: 1.5;" x1="228" x2="310" y1="111.5" y2="111.5"/><line style="stroke: #A80036; stroke-width: 1.5;" x1="228" x2="310" y1="119.5" y2="119.5"/><!--class UI.ScorePanel--><rect fill="#FEFECE" filter="url(#fjzq2kq4ayl)" height="48" id="UI.ScorePanel" style="stroke: #A80036; stroke-width: 1.5;" width="95" x="440.5" y="79.5"/><ellipse cx="455.5" cy="95.5" fill="#ADD1B2" rx="11" ry="11" style="stroke: #A80036; stroke-width: 1.0;"/><path d="M458.8906,97.4844 Q458.4688,102.4688 455.1563,102.4688 Q453.2031,102.4688 452.1563,100.4688 Q451.2813,98.7969 451.2813,95.8594 Q451.2813,92.8438 452.25,91.0781 Q453.25,89.2031 455.1563,89.2031 Q458.1875,89.2031 458.8125,93.6406 L456.7344,93.6406 Q456.375,91.1719 455.1563,91.1719 Q453.4219,91.1719 453.4219,95.8594 Q453.4219,100.5 455.1719,100.5 Q456.6094,100.5 456.7656,97.4844 L458.8906,97.4844 Z "/><text fill="#000000" font-family="sans-serif" font-size="12" lengthAdjust="spacingAndGlyphs" textLength="63" x="469.5" y="100.0586">ScorePanel</text><line style="stroke: #A80036; stroke-width: 1.5;" x1="441.5" x2="534.5" y1="111.5" y2="111.5"/><line style="stroke: #A80036; stroke-width: 1.5;" x1="441.5" x2="534.5" y1="119.5" y2="119.5"/><!--class UI.MiniMap--><rect fill="#FEFECE" filter="url(#fjzq2kq4ayl)" height="93" id="UI.MiniMap" style="stroke: #A80036; stroke-width: 1.5;" width="117" x="570.5" y="57"/><ellipse cx="601.7" cy="73" fill="#ADD1B2" rx="11" ry="11" style="stroke: #A80036; stroke-width: 1.0;"/><path d="M605.0906,74.9844 Q604.6688,79.9688 601.3563,79.9688 Q599.4031,79.9688 598.3563,77.9688 Q597.4813,76.2969 597.4813,73.3594 Q597.4813,70.3438 598.45,68.5781 Q599.45,66.7031 601.3563,66.7031 Q604.3875,66.7031 605.0125,71.1406 L602.9344,71.1406 Q602.575,68.6719 601.3563,68.6719 Q599.6219,68.6719 599.6219,73.3594 Q599.6219,78 601.3719,78 Q602.8094,78 602.9656,74.9844 L605.0906,74.9844 Z "/><text fill="#000000" font-family="sans-serif" font-size="12" lengthAdjust="spacingAndGlyphs" textLength="49" x="619.3" y="77.5586">MiniMap</text><line style="stroke: #A80036; stroke-width: 1.5;" x1="571.5" x2="686.5" y1="89" y2="89"/><polygon fill="none" points="581.5,111,577.5,117,585.5,117" style="stroke: #1963A0; stroke-width: 1.0;"/><text fill="#000000" font-family="sans-serif" font-size="11" lengthAdjust="spacingAndGlyphs" textLength="91" x="590.5" y="117.6787">int ShowDuration</text><polygon fill="none" points="581.5,122,577.5,128,585.5,128" style="stroke: #1963A0; stroke-width: 1.0;"/><text fill="#000000" font-family="sans-serif" font-size="11" lengthAdjust="spacingAndGlyphs" textLength="83" x="590.5" y="128.6787">int ShowInterval</text><line style="stroke: #A80036; stroke-width: 1.0; stroke-dasharray: 1.0,2.0;" x1="571.5" x2="600.5" y1="102.5" y2="102.5"/><text fill="#000000" font-family="sans-serif" font-size="11" lengthAdjust="spacingAndGlyphs" textLength="57" x="600.5" y="106.1787">serializable</text><line style="stroke: #A80036; stroke-width: 1.0; stroke-dasharray: 1.0,2.0;" x1="657.5" x2="686.5" y1="102.5" y2="102.5"/><line style="stroke: #A80036; stroke-width: 1.0; stroke-dasharray: 1.0,2.0;" x1="571.5" x2="686.5" y1="134" y2="134"/><line style="stroke: #A80036; stroke-width: 1.5;" x1="571.5" x2="686.5" y1="142" y2="142"/><!--class UI.WindPanel--><rect fill="#FEFECE" filter="url(#fjzq2kq4ayl)" height="70" id="UI.WindPanel" style="stroke: #A80036; stroke-width: 1.5;" width="129" x="722.5" y="68.5"/><ellipse cx="754.6" cy="84.5" fill="#ADD1B2" rx="11" ry="11" style="stroke: #A80036; stroke-width: 1.0;"/><path d="M757.9906,86.4844 Q757.5688,91.4688 754.2563,91.4688 Q752.3031,91.4688 751.2563,89.4688 Q750.3813,87.7969 750.3813,84.8594 Q750.3813,81.8438 751.35,80.0781 Q752.35,78.2031 754.2563,78.2031 Q757.2875,78.2031 757.9125,82.6406 L755.8344,82.6406 Q755.475,80.1719 754.2563,80.1719 Q752.5219,80.1719 752.5219,84.8594 Q752.5219,89.5 754.2719,89.5 Q755.7094,89.5 755.8656,86.4844 L757.9906,86.4844 Z "/><text fill="#000000" font-family="sans-serif" font-size="12" lengthAdjust="spacingAndGlyphs" textLength="59" x="772.4" y="89.0586">WindPanel</text><line style="stroke: #A80036; stroke-width: 1.5;" x1="723.5" x2="850.5" y1="100.5" y2="100.5"/><line style="stroke: #A80036; stroke-width: 1.5;" x1="723.5" x2="850.5" y1="108.5" y2="108.5"/><rect fill="#F24D5C" height="6" style="stroke: #C82930; stroke-width: 1.0;" width="6" x="730.5" y="116.5"/><text fill="#000000" font-family="sans-serif" font-size="11" lengthAdjust="spacingAndGlyphs" textLength="87" x="742.5" y="122.1787">int WindSpeed ()</text><rect fill="#F24D5C" height="6" style="stroke: #C82930; stroke-width: 1.0;" width="6" x="730.5" y="127.5"/><text fill="#000000" font-family="sans-serif" font-size="11" lengthAdjust="spacingAndGlyphs" textLength="103" x="742.5" y="133.1787">int WindDirection ()</text><!--class UI.StopVote--><rect fill="#FEFECE" filter="url(#fjzq2kq4ayl)" height="48" id="UI.StopVote" style="stroke: #A80036; stroke-width: 1.5;" width="83" x="886.5" y="79.5"/><ellipse cx="901.5" cy="95.5" fill="#ADD1B2" rx="11" ry="11" style="stroke: #A80036; stroke-width: 1.0;"/><path d="M904.8906,97.4844 Q904.4688,102.4688 901.1563,102.4688 Q899.2031,102.4688 898.1563,100.4688 Q897.2813,98.7969 897.2813,95.8594 Q897.2813,92.8438 898.25,91.0781 Q899.25,89.2031 901.1563,89.2031 Q904.1875,89.2031 904.8125,93.6406 L902.7344,93.6406 Q902.375,91.1719 901.1563,91.1719 Q899.4219,91.1719 899.4219,95.8594 Q899.4219,100.5 901.1719,100.5 Q902.6094,100.5 902.7656,97.4844 L904.8906,97.4844 Z "/><text fill="#000000" font-family="sans-serif" font-size="12" lengthAdjust="spacingAndGlyphs" textLength="51" x="915.5" y="100.0586">StopVote</text><line style="stroke: #A80036; stroke-width: 1.5;" x1="887.5" x2="968.5" y1="111.5" y2="111.5"/><line style="stroke: #A80036; stroke-width: 1.5;" x1="887.5" x2="968.5" y1="119.5" y2="119.5"/><!--class GameMeta.FruitFever--><rect fill="#FEFECE" filter="url(#fjzq2kq4ayl)" height="48" id="GameMeta.FruitFever" style="stroke: #A80036; stroke-width: 1.5;" width="88" x="38" y="271"/><ellipse cx="53" cy="287" fill="#ADD1B2" rx="11" ry="11" style="stroke: #A80036; stroke-width: 1.0;"/><path d="M56.3906,288.9844 Q55.9688,293.9688 52.6563,293.9688 Q50.7031,293.9688 49.6563,291.9688 Q48.7813,290.2969 48.7813,287.3594 Q48.7813,284.3438 49.75,282.5781 Q50.75,280.7031 52.6563,280.7031 Q55.6875,280.7031 56.3125,285.1406 L54.2344,285.1406 Q53.875,282.6719 52.6563,282.6719 Q50.9219,282.6719 50.9219,287.3594 Q50.9219,292 52.6719,292 Q54.1094,292 54.2656,288.9844 L56.3906,288.9844 Z "/><text fill="#000000" font-family="sans-serif" font-size="12" lengthAdjust="spacingAndGlyphs" textLength="56" x="67" y="291.5586">FruitFever</text><line style="stroke: #A80036; stroke-width: 1.5;" x1="39" x2="125" y1="303" y2="303"/><line style="stroke: #A80036; stroke-width: 1.5;" x1="39" x2="125" y1="311" y2="311"/><!--class GameMeta.GameTimer--><rect fill="#FEFECE" filter="url(#fjzq2kq4ayl)" height="48" id="GameMeta.GameTimer" style="stroke: #A80036; stroke-width: 1.5;" width="96" x="289" y="271"/><ellipse cx="304" cy="287" fill="#ADD1B2" rx="11" ry="11" style="stroke: #A80036; stroke-width: 1.0;"/><path d="M307.3906,288.9844 Q306.9688,293.9688 303.6563,293.9688 Q301.7031,293.9688 300.6563,291.9688 Q299.7813,290.2969 299.7813,287.3594 Q299.7813,284.3438 300.75,282.5781 Q301.75,280.7031 303.6563,280.7031 Q306.6875,280.7031 307.3125,285.1406 L305.2344,285.1406 Q304.875,282.6719 303.6563,282.6719 Q301.9219,282.6719 301.9219,287.3594 Q301.9219,292 303.6719,292 Q305.1094,292 305.2656,288.9844 L307.3906,288.9844 Z "/><text fill="#000000" font-family="sans-serif" font-size="12" lengthAdjust="spacingAndGlyphs" textLength="64" x="318" y="291.5586">GameTimer</text><line style="stroke: #A80036; stroke-width: 1.5;" x1="290" x2="384" y1="303" y2="303"/><line style="stroke: #A80036; stroke-width: 1.5;" x1="290" x2="384" y1="311" y2="311"/><!--class GameMeta.FruitStrong--><rect fill="#FEFECE" filter="url(#fjzq2kq4ayl)" height="48" id="GameMeta.FruitStrong" style="stroke: #A80036; stroke-width: 1.5;" width="93" x="160.5" y="271"/><ellipse cx="175.5" cy="287" fill="#ADD1B2" rx="11" ry="11" style="stroke: #A80036; stroke-width: 1.0;"/><path d="M178.8906,288.9844 Q178.4688,293.9688 175.1563,293.9688 Q173.2031,293.9688 172.1563,291.9688 Q171.2813,290.2969 171.2813,287.3594 Q171.2813,284.3438 172.25,282.5781 Q173.25,280.7031 175.1563,280.7031 Q178.1875,280.7031 178.8125,285.1406 L176.7344,285.1406 Q176.375,282.6719 175.1563,282.6719 Q173.4219,282.6719 173.4219,287.3594 Q173.4219,292 175.1719,292 Q176.6094,292 176.7656,288.9844 L178.8906,288.9844 Z "/><text fill="#000000" font-family="sans-serif" font-size="12" lengthAdjust="spacingAndGlyphs" textLength="61" x="189.5" y="291.5586">FruitStrong</text><line style="stroke: #A80036; stroke-width: 1.5;" x1="161.5" x2="252.5" y1="303" y2="303"/><line style="stroke: #A80036; stroke-width: 1.5;" x1="161.5" x2="252.5" y1="311" y2="311"/><!--class Game.GameManager--><rect fill="#FEFECE" filter="url(#fjzq2kq4ayl)" height="48" id="Game.GameManager" style="stroke: #A80036; stroke-width: 1.5;" width="115" x="441.5" y="271"/><ellipse cx="456.5" cy="287" fill="#ADD1B2" rx="11" ry="11" style="stroke: #A80036; stroke-width: 1.0;"/><path d="M459.8906,288.9844 Q459.4688,293.9688 456.1563,293.9688 Q454.2031,293.9688 453.1563,291.9688 Q452.2813,290.2969 452.2813,287.3594 Q452.2813,284.3438 453.25,282.5781 Q454.25,280.7031 456.1563,280.7031 Q459.1875,280.7031 459.8125,285.1406 L457.7344,285.1406 Q457.375,282.6719 456.1563,282.6719 Q454.4219,282.6719 454.4219,287.3594 Q454.4219,292 456.1719,292 Q457.6094,292 457.7656,288.9844 L459.8906,288.9844 Z "/><text fill="#000000" font-family="sans-serif" font-size="12" lengthAdjust="spacingAndGlyphs" textLength="83" x="470.5" y="291.5586">GameManager</text><line style="stroke: #A80036; stroke-width: 1.5;" x1="442.5" x2="555.5" y1="303" y2="303"/><line style="stroke: #A80036; stroke-width: 1.5;" x1="442.5" x2="555.5" y1="311" y2="311"/><!--class Game.Player--><rect fill="#FEFECE" filter="url(#fjzq2kq4ayl)" height="48" id="Game.Player" style="stroke: #A80036; stroke-width: 1.5;" width="66" x="592" y="271"/><ellipse cx="607" cy="287" fill="#ADD1B2" rx="11" ry="11" style="stroke: #A80036; stroke-width: 1.0;"/><path d="M610.3906,288.9844 Q609.9688,293.9688 606.6563,293.9688 Q604.7031,293.9688 603.6563,291.9688 Q602.7813,290.2969 602.7813,287.3594 Q602.7813,284.3438 603.75,282.5781 Q604.75,280.7031 606.6563,280.7031 Q609.6875,280.7031 610.3125,285.1406 L608.2344,285.1406 Q607.875,282.6719 606.6563,282.6719 Q604.9219,282.6719 604.9219,287.3594 Q604.9219,292 606.6719,292 Q608.1094,292 608.2656,288.9844 L610.3906,288.9844 Z "/><text fill="#000000" font-family="sans-serif" font-size="12" lengthAdjust="spacingAndGlyphs" textLength="34" x="621" y="291.5586">Player</text><line style="stroke: #A80036; stroke-width: 1.5;" x1="593" x2="657" y1="303" y2="303"/><line style="stroke: #A80036; stroke-width: 1.5;" x1="593" x2="657" y1="311" y2="311"/><!--class Game.Fruit.FruitSpawner--><rect fill="#FEFECE" filter="url(#fjzq2kq4ayl)" height="48" id="Game.Fruit.FruitSpawner" style="stroke: #A80036; stroke-width: 1.5;" width="105" x="714.5" y="271"/><ellipse cx="729.5" cy="287" fill="#ADD1B2" rx="11" ry="11" style="stroke: #A80036; stroke-width: 1.0;"/><path d="M732.8906,288.9844 Q732.4688,293.9688 729.1563,293.9688 Q727.2031,293.9688 726.1563,291.9688 Q725.2813,290.2969 725.2813,287.3594 Q725.2813,284.3438 726.25,282.5781 Q727.25,280.7031 729.1563,280.7031 Q732.1875,280.7031 732.8125,285.1406 L730.7344,285.1406 Q730.375,282.6719 729.1563,282.6719 Q727.4219,282.6719 727.4219,287.3594 Q727.4219,292 729.1719,292 Q730.6094,292 730.7656,288.9844 L732.8906,288.9844 Z "/><text fill="#000000" font-family="sans-serif" font-size="12" lengthAdjust="spacingAndGlyphs" textLength="73" x="743.5" y="291.5586">FruitSpawner</text><line style="stroke: #A80036; stroke-width: 1.5;" x1="715.5" x2="818.5" y1="303" y2="303"/><line style="stroke: #A80036; stroke-width: 1.5;" x1="715.5" x2="818.5" y1="311" y2="311"/><!--class Meta.StopVote--><rect fill="#FEFECE" filter="url(#fjzq2kq4ayl)" height="48" id="Meta.StopVote" style="stroke: #A80036; stroke-width: 1.5;" width="83" x="886.5" y="271"/><ellipse cx="901.5" cy="287" fill="#ADD1B2" rx="11" ry="11" style="stroke: #A80036; stroke-width: 1.0;"/><path d="M904.8906,288.9844 Q904.4688,293.9688 901.1563,293.9688 Q899.2031,293.9688 898.1563,291.9688 Q897.2813,290.2969 897.2813,287.3594 Q897.2813,284.3438 898.25,282.5781 Q899.25,280.7031 901.1563,280.7031 Q904.1875,280.7031 904.8125,285.1406 L902.7344,285.1406 Q902.375,282.6719 901.1563,282.6719 Q899.4219,282.6719 899.4219,287.3594 Q899.4219,292 901.1719,292 Q902.6094,292 902.7656,288.9844 L904.8906,288.9844 Z "/><text fill="#000000" font-family="sans-serif" font-size="12" lengthAdjust="spacingAndGlyphs" textLength="51" x="915.5" y="291.5586">StopVote</text><line style="stroke: #A80036; stroke-width: 1.5;" x1="887.5" x2="968.5" y1="303" y2="303"/><line style="stroke: #A80036; stroke-width: 1.5;" x1="887.5" x2="968.5" y1="311" y2="311"/><!--link UI.FruitFever to GameMeta.FruitFever--><path d="M124.406,133.281 C114.928,169.203 98.8238,230.238 89.4252,265.8584 " fill="none" id="UI.FruitFever-GameMeta.FruitFever" style="stroke: #A80036; stroke-width: 1.0; stroke-dasharray: 7.0,7.0;"/><polygon fill="#A80036" points="88.0888,270.9235,94.2527,263.2419,89.3645,266.089,86.5174,261.2008,88.0888,270.9235" style="stroke: #A80036; stroke-width: 1.0;"/><!--link UI.Time to GameMeta.GameTimer--><path d="M371.218,127.736 C364.064,162.496 350.592,227.954 342.858,265.5348 " fill="none" id="UI.Time-GameMeta.GameTimer" style="stroke: #A80036; stroke-width: 1.0; stroke-dasharray: 7.0,7.0;"/><polygon fill="#A80036" points="341.76,270.8702,347.4923,262.8614,342.768,265.9729,339.6566,261.2486,341.76,270.8702" style="stroke: #A80036; stroke-width: 1.0;"/><!--link UI.InfoPanel to GameMeta.FruitFever--><path d="M250.661,127.513 C239.193,141.443 223.829,159.298 209,174 C181.682,201.085 170.977,203.595 143,230 C130.564,241.737 117.399,255.3795 106.496,267.0457 " fill="none" id="UI.InfoPanel-GameMeta.FruitFever" style="stroke: #A80036; stroke-width: 1.0; stroke-dasharray: 7.0,7.0;"/><polygon fill="#A80036" points="102.8888,270.9207,111.949,267.0591,106.2958,267.2611,106.0937,261.6079,102.8888,270.9207" style="stroke: #A80036; stroke-width: 1.0;"/><!--link UI.InfoPanel to GameMeta.FruitStrong--><path d="M261.398,127.736 C249.978,162.638 228.433,228.492 216.162,265.9955 " fill="none" id="UI.InfoPanel-GameMeta.FruitStrong" style="stroke: #A80036; stroke-width: 1.0; stroke-dasharray: 7.0,7.0;"/><polygon fill="#A80036" points="214.568,270.8702,221.1681,263.56,216.1226,266.118,213.5646,261.0726,214.568,270.8702" style="stroke: #A80036; stroke-width: 1.0;"/><!--link UI.InfoPanel to GameMeta.GameTimer--><path d="M277.338,127.736 C289.862,162.638 313.493,228.492 326.951,265.9955 " fill="none" id="UI.InfoPanel-GameMeta.GameTimer" style="stroke: #A80036; stroke-width: 1.0; stroke-dasharray: 7.0,7.0;"/><polygon fill="#A80036" points="328.7,270.8702,329.425,261.0481,327.0111,266.1641,321.8951,263.7502,328.7,270.8702" style="stroke: #A80036; stroke-width: 1.0;"/><!--link UI.InfoPanel to Game.GameManager--><path d="M286.624,127.672 C297.949,141.828 313.414,159.864 329,174 C351.378,194.296 417.081,239.295 459.944,268.0535 " fill="none" id="UI.InfoPanel-Game.GameManager" style="stroke: #A80036; stroke-width: 1.0; stroke-dasharray: 7.0,7.0;"/><polygon fill="#A80036" points="464.277,270.9574,459.0286,262.6235,460.1238,268.1733,454.574,269.2685,464.277,270.9574" style="stroke: #A80036; stroke-width: 1.0;"/><!--link UI.ScorePanel to Game.GameManager--><path d="M489.349,127.736 C491.367,162.496 495.166,227.954 497.348,265.5348 " fill="none" id="UI.ScorePanel-Game.GameManager" style="stroke: #A80036; stroke-width: 1.0; stroke-dasharray: 7.0,7.0;"/><polygon fill="#A80036" points="497.657,270.8702,501.1287,261.6535,497.3672,265.8786,493.1421,262.1172,497.657,270.8702" style="stroke: #A80036; stroke-width: 1.0;"/><!--link UI.MiniMap to Game.GameManager--><path d="M597.531,150.373 C572.606,186.705 538.624,236.241 517.78,266.6248 " fill="none" id="UI.MiniMap-Game.GameManager" style="stroke: #A80036; stroke-width: 1.0;"/><polygon fill="#A80036" points="514.802,270.9649,523.1919,265.8065,517.6306,266.8419,516.5952,261.2807,514.802,270.9649" style="stroke: #A80036; stroke-width: 1.0;"/><!--link UI.MiniMap to Game.Fruit.FruitSpawner--><path d="M662.406,150.373 C688.864,186.705 724.938,236.241 747.064,266.6248 " fill="none" id="UI.MiniMap-Game.Fruit.FruitSpawner" style="stroke: #A80036; stroke-width: 1.0;"/><polygon fill="#A80036" points="750.225,270.9649,748.1598,261.335,747.2814,266.9232,741.6932,266.0448,750.225,270.9649" style="stroke: #A80036; stroke-width: 1.0;"/><!--link UI.WindPanel to Game.Player--><path d="M757.663,138.817 C726.208,175.611 676.914,233.273 648.1,266.9785 " fill="none" id="UI.WindPanel-Game.Player" style="stroke: #A80036; stroke-width: 1.0;"/><polygon fill="#A80036" points="644.69,270.9671,653.5781,266.7243,647.9386,267.1662,647.4967,261.5266,644.69,270.9671" style="stroke: #A80036; stroke-width: 1.0;"/><!--link UI.StopVote to Meta.StopVote--><path d="M928,127.736 C928,162.496 928,227.954 928,265.5348 " fill="none" id="UI.StopVote-Meta.StopVote" style="stroke: #A80036; stroke-width: 1.0; stroke-dasharray: 7.0,7.0;"/><polygon fill="#A80036" points="928,270.8702,932,261.8702,928,265.8702,924,261.8702,928,270.8702" style="stroke: #A80036; stroke-width: 1.0;"/><!--
@startuml

namespace UI {
  class FruitFever {
    - void ShowEffect ()
  }

  class Time

  class InfoPanel
  class ScorePanel

  class MiniMap {
    .. serializable ..
    ~ int ShowDuration
    ~ int ShowInterval
    ....
    ____
  }

  class WindPanel {
    - int WindSpeed ()
    - int WindDirection ()
  }

  class StopVote

  FruitFever ...> GameMeta.FruitFever
  Time ...> GameMeta.GameTimer
  InfoPanel ...> GameMeta.FruitFever
  InfoPanel ...> GameMeta.FruitStrong
  InfoPanel ...> GameMeta.GameTimer
  InfoPanel ...> Game.GameManager
  ScorePanel ...> Game.GameManager
  MiniMap - - -> Game.GameManager
  MiniMap - - -> Game.Fruit.FruitSpawner
  WindPanel - - -> Game.Player
  StopVote ...> Meta.StopVote
}

@enduml

PlantUML version 1.2017.12(Thu Apr 27 01:06:36 JST 2017)
(GPL source distribution)
Java Runtime: OpenJDK Runtime Environment
JVM: OpenJDK 64-Bit Server VM
Java Version: 1.8.0_112-release-736-b21
Operating System: Linux
OS Version: 4.10.0-35-generic
Default Encoding: UTF-8
Language: ja
Country: JP
--></g></svg>